<svg width="680" height="340" viewBox="0 0 680 340" fill="none" xmlns="http://www.w3.org/2000/svg">
<g filter="url(#filter0_b_579_20)">
<rect width="680" height="340" fill="#EB6976" fill-opacity="0.08"/>
</g>
<line y1="254.5" x2="680" y2="254.5" stroke="#EB6976" stroke-opacity="0.08"/>
<line y1="84.5" x2="680" y2="84.5" stroke="#EB6976" stroke-opacity="0.08"/>
<line y1="169.5" x2="680" y2="169.5" stroke="#EB6976" stroke-opacity="0.08"/>
<line x1="340.5" y1="2.18557e-08" x2="340.5" y2="339" stroke="#EB6976" stroke-opacity="0.08"/>
<line x1="425.5" y1="2.18557e-08" x2="425.5" y2="339" stroke="#EB6976" stroke-opacity="0.08"/>
<line x1="510.5" y1="2.18557e-08" x2="510.5" y2="339" stroke="#EB6976" stroke-opacity="0.08"/>
<line x1="595.5" y1="2.18557e-08" x2="595.5" y2="339" stroke="#EB6976" stroke-opacity="0.08"/>
<line x1="170.5" y1="2.18557e-08" x2="170.5" y2="339" stroke="#EB6976" stroke-opacity="0.08"/>
<line x1="255.5" y1="2.18557e-08" x2="255.5" y2="339" stroke="#EB6976" stroke-opacity="0.08"/>
<line x1="85.5" y1="2.18557e-08" x2="85.5" y2="339" stroke="#EB6976" stroke-opacity="0.08"/>
<path fill-rule="evenodd" clip-rule="evenodd" d="M86 80H85V84L81 84V85H85V89H86V85H90V84L86 84V80Z" fill="#EB6976" fill-opacity="0.15"/>
<path fill-rule="evenodd" clip-rule="evenodd" d="M86 165H85V169L81 169V170H85V174H86V170H90V169L86 169V165Z" fill="#EB6976" fill-opacity="0.15"/>
<path fill-rule="evenodd" clip-rule="evenodd" d="M86 250H85V254L81 254V255H85V259H86V255H90V254L86 254V250Z" fill="#EB6976" fill-opacity="0.15"/>
<path fill-rule="evenodd" clip-rule="evenodd" d="M171 80H170V84L166 84V85H170V89H171V85H175V84L171 84V80Z" fill="#EB6976" fill-opacity="0.15"/>
<path fill-rule="evenodd" clip-rule="evenodd" d="M171 165H170V169L166 169V170H170V174H171V170H175V169L171 169V165Z" fill="#EB6976" fill-opacity="0.15"/>
<path fill-rule="evenodd" clip-rule="evenodd" d="M171 250H170V254L166 254V255H170V259H171V255H175V254L171 254V250Z" fill="#EB6976" fill-opacity="0.15"/>
<path fill-rule="evenodd" clip-rule="evenodd" d="M256 80H255V84L251 84V85H255V89H256V85H260V84L256 84V80Z" fill="#EB6976" fill-opacity="0.15"/>
<path fill-rule="evenodd" clip-rule="evenodd" d="M256 165H255V169L251 169V170H255V174H256V170H260V169L256 169V165Z" fill="#EB6976" fill-opacity="0.15"/>
<path fill-rule="evenodd" clip-rule="evenodd" d="M256 250H255V254L251 254V255H255V259H256V255H260V254L256 254V250Z" fill="#EB6976" fill-opacity="0.15"/>
<path fill-rule="evenodd" clip-rule="evenodd" d="M341 80H340V84L336 84V85H340V89H341V85H345V84L341 84V80Z" fill="#EB6976" fill-opacity="0.15"/>
<path fill-rule="evenodd" clip-rule="evenodd" d="M341 165H340V169L336 169V170H340V174H341V170H345V169L341 169V165Z" fill="#EB6976" fill-opacity="0.15"/>
<path fill-rule="evenodd" clip-rule="evenodd" d="M341 250H340V254L336 254V255H340V259H341V255H345V254L341 254V250Z" fill="#EB6976" fill-opacity="0.15"/>
<path fill-rule="evenodd" clip-rule="evenodd" d="M426 80H425V84L421 84V85H425V89H426V85H430V84L426 84V80Z" fill="#EB6976" fill-opacity="0.15"/>
<path fill-rule="evenodd" clip-rule="evenodd" d="M426 165H425V169L421 169V170H425V174H426V170H430V169L426 169V165Z" fill="#EB6976" fill-opacity="0.15"/>
<path fill-rule="evenodd" clip-rule="evenodd" d="M426 250H425V254L421 254V255H425V259H426V255H430V254L426 254V250Z" fill="#EB6976" fill-opacity="0.15"/>
<path fill-rule="evenodd" clip-rule="evenodd" d="M511 80H510V84L506 84V85H510V89H511V85H515V84L511 84V80Z" fill="#EB6976" fill-opacity="0.15"/>
<path fill-rule="evenodd" clip-rule="evenodd" d="M511 165H510V169L506 169V170H510V174H511V170H515V169L511 169V165Z" fill="#EB6976" fill-opacity="0.15"/>
<path fill-rule="evenodd" clip-rule="evenodd" d="M511 250H510V254L506 254V255H510V259H511V255H515V254L511 254V250Z" fill="#EB6976" fill-opacity="0.15"/>
<path fill-rule="evenodd" clip-rule="evenodd" d="M596 80H595V84L591 84V85H595V89H596V85H600V84L596 84V80Z" fill="#EB6976" fill-opacity="0.15"/>
<path fill-rule="evenodd" clip-rule="evenodd" d="M596 165H595V169L591 169V170H595V174H596V170H600V169L596 169V165Z" fill="#EB6976" fill-opacity="0.15"/>
<path fill-rule="evenodd" clip-rule="evenodd" d="M596 250H595V254L591 254V255H595V259H596V255H600V254L596 254V250Z" fill="#EB6976" fill-opacity="0.15"/>
<defs>
<filter id="filter0_b_579_20" x="-10" y="-10" width="700" height="360" filterUnits="userSpaceOnUse" color-interpolation-filters="sRGB">
<feFlood flood-opacity="0" result="BackgroundImageFix"/>
<feGaussianBlur in="BackgroundImageFix" stdDeviation="5"/>
<feComposite in2="SourceAlpha" operator="in" result="effect1_backgroundBlur_579_20"/>
<feBlend mode="normal" in="SourceGraphic" in2="effect1_backgroundBlur_579_20" result="shape"/>
</filter>
</defs>
</svg>
