<svg width="961" height="683" viewBox="0 0 961 683" fill="none" xmlns="http://www.w3.org/2000/svg">
<rect width="1" height="683" fill="url(#paint0_linear_565_126)" fill-opacity="0.12"/>
<rect x="120" width="1" height="683" fill="url(#paint1_linear_565_126)" fill-opacity="0.12"/>
<rect x="240" width="1" height="683" fill="url(#paint2_linear_565_126)" fill-opacity="0.12"/>
<rect x="360" width="1" height="683" fill="url(#paint3_linear_565_126)" fill-opacity="0.12"/>
<rect x="480" width="1" height="683" fill="url(#paint4_linear_565_126)" fill-opacity="0.12"/>
<rect x="600" width="1" height="683" fill="url(#paint5_linear_565_126)" fill-opacity="0.12"/>
<rect x="720" width="1" height="683" fill="url(#paint6_linear_565_126)" fill-opacity="0.12"/>
<rect x="840" width="1" height="683" fill="url(#paint7_linear_565_126)" fill-opacity="0.12"/>
<rect x="960" width="1" height="683" fill="url(#paint8_linear_565_126)" fill-opacity="0.12"/>
<g filter="url(#filter0_b_565_126)">
<path d="M121 190H207V222H121V190Z" fill="#FDF0F1"/>
</g>
<rect x="122" y="191" width="4" height="4" fill="#BF674E" fill-opacity="0.5"/>
<rect x="128" y="191" width="4" height="4" fill="#BF674E" fill-opacity="0.3"/>
<rect x="134" y="191" width="4" height="4" fill="#BF674E" fill-opacity="0.15"/>
<path d="M1 110H143V134L139 138L135 142H1V110Z" fill="#FDF0F1"/>
<g filter="url(#filter1_b_565_126)">
<mask id="path-15-inside-1_565_126" fill="white">
<path d="M145 110H237V134H145V110Z"/>
</mask>
<path d="M145 110H237V134H145V110Z" fill="#FEFDBA" fill-opacity="0.12"/>
<path d="M236 110V134H238V110H236ZM146 134V110H144V134H146Z" fill="#FEFDBA" fill-opacity="0.6" mask="url(#path-15-inside-1_565_126)"/>
</g>
<path d="M137.536 210.164V202.568C137.536 202.352 137.5 202.214 137.428 202.154C137.356 202.082 137.212 202.046 136.996 202.046H136.024C135.808 202.046 135.664 202.082 135.592 202.154C135.532 202.214 135.502 202.352 135.502 202.568V210.164C135.502 210.38 135.532 210.524 135.592 210.596C135.664 210.656 135.808 210.686 136.024 210.686H136.996C137.212 210.686 137.356 210.656 137.428 210.596C137.5 210.524 137.536 210.38 137.536 210.164ZM139.174 202.316V210.416C139.174 211.472 138.616 212 137.5 212H135.538C134.41 212 133.846 211.472 133.846 210.416V202.316C133.846 201.26 134.41 200.732 135.538 200.732H137.5C138.616 200.732 139.174 201.26 139.174 202.316ZM143.524 202.568V204.404H141.904V202.316C141.904 201.26 142.462 200.732 143.578 200.732H145.126C146.254 200.732 146.818 201.26 146.818 202.316V203.45C146.818 204.29 146.608 205.112 146.188 205.916L143.758 210.686H146.89V212H141.922V210.74L144.676 205.556C145.012 204.92 145.18 204.2 145.18 203.396V202.568C145.18 202.352 145.144 202.214 145.072 202.154C145.012 202.082 144.868 202.046 144.64 202.046H144.064C143.848 202.046 143.704 202.082 143.632 202.154C143.56 202.214 143.524 202.352 143.524 202.568Z" fill="#120505" fill-opacity="0.6"/>
<path d="M153.777 200.732H157.467C158.583 200.732 159.141 201.26 159.141 202.316V206.06C159.141 207.116 158.583 207.644 157.467 207.644H155.397V212H153.777V200.732ZM157.521 205.808V202.568C157.521 202.352 157.485 202.214 157.413 202.154C157.341 202.082 157.197 202.046 156.981 202.046H155.397V206.348H156.981C157.197 206.348 157.341 206.312 157.413 206.24C157.485 206.168 157.521 206.024 157.521 205.808ZM166.934 202.046H163.658V205.754H166.25V207.032H163.658V212H162.02V200.732H166.934V202.046ZM169.437 200.732H173.127C174.243 200.732 174.801 201.26 174.801 202.316V206.06C174.801 207.116 174.243 207.644 173.127 207.644H171.057V212H169.437V200.732ZM173.181 205.808V202.568C173.181 202.352 173.145 202.214 173.073 202.154C173.001 202.082 172.857 202.046 172.641 202.046H171.057V206.348H172.641C172.857 206.348 173.001 206.312 173.073 206.24C173.145 206.168 173.181 206.024 173.181 205.808ZM177.32 200.732H179.138V201.902L177.878 205.448H177.32V200.732ZM185.348 210.164V207.41C185.348 207.194 185.312 207.056 185.24 206.996C185.18 206.924 185.042 206.888 184.826 206.888H183.494C182.402 206.888 181.856 206.354 181.856 205.286V202.316C181.856 201.26 182.414 200.732 183.53 200.732H185.294C186.41 200.732 186.968 201.26 186.968 202.316V203.972H185.33V202.568C185.33 202.352 185.294 202.214 185.222 202.154C185.15 202.082 185.006 202.046 184.79 202.046H184.034C183.818 202.046 183.674 202.082 183.602 202.154C183.53 202.214 183.494 202.352 183.494 202.568V205.07C183.494 205.286 183.53 205.43 183.602 205.502C183.674 205.562 183.818 205.592 184.034 205.592H185.348C186.452 205.592 187.004 206.12 187.004 207.176V210.416C187.004 211.472 186.44 212 185.312 212H183.566C182.45 212 181.892 211.472 181.892 210.416V208.76H183.53V210.164C183.53 210.38 183.566 210.524 183.638 210.596C183.71 210.656 183.854 210.686 184.07 210.686H184.826C185.042 210.686 185.18 210.656 185.24 210.596C185.312 210.524 185.348 210.38 185.348 210.164Z" fill="#120505"/>
<mask id="mask0_565_126" style="mask-type:alpha" maskUnits="userSpaceOnUse" x="209" y="190" width="745" height="32">
<path d="M209 190H954V214.943H276L270 222H209V190Z" fill="#D9D9D9"/>
</mask>
<g mask="url(#mask0_565_126)">
<line x1="220.958" y1="179.385" x2="181.106" y2="226.88" stroke="#EB6976" stroke-opacity="0.45" stroke-width="4"/>
<line x1="230.958" y1="179.385" x2="191.106" y2="226.88" stroke="#EB6976" stroke-opacity="0.45" stroke-width="4"/>
<line x1="240.959" y1="179.385" x2="201.106" y2="226.88" stroke="#EB6976" stroke-opacity="0.45" stroke-width="4"/>
<line x1="250.959" y1="179.385" x2="211.106" y2="226.88" stroke="#EB6976" stroke-opacity="0.45" stroke-width="4"/>
<line x1="260.958" y1="179.385" x2="221.106" y2="226.88" stroke="#EB6976" stroke-opacity="0.45" stroke-width="4"/>
<line x1="270.959" y1="179.385" x2="231.106" y2="226.88" stroke="#EB6976" stroke-opacity="0.45" stroke-width="4"/>
<line x1="280.959" y1="179.385" x2="241.106" y2="226.88" stroke="#EB6976" stroke-opacity="0.45" stroke-width="4"/>
<line x1="290.959" y1="179.385" x2="251.106" y2="226.88" stroke="#EB6976" stroke-opacity="0.45" stroke-width="4"/>
<line x1="300.958" y1="179.385" x2="261.106" y2="226.88" stroke="#EB6976" stroke-opacity="0.45" stroke-width="4"/>
<line x1="310.958" y1="179.385" x2="271.106" y2="226.88" stroke="#EB6976" stroke-opacity="0.45" stroke-width="4"/>
<line x1="320.959" y1="179.385" x2="281.106" y2="226.88" stroke="#EB6976" stroke-opacity="0.45" stroke-width="4"/>
<line x1="330.959" y1="179.385" x2="291.106" y2="226.88" stroke="#EB6976" stroke-opacity="0.45" stroke-width="4"/>
<line x1="340.959" y1="179.385" x2="301.106" y2="226.88" stroke="#EB6976" stroke-opacity="0.45" stroke-width="4"/>
<line x1="350.959" y1="179.385" x2="311.106" y2="226.88" stroke="#EB6976" stroke-opacity="0.45" stroke-width="4"/>
<line x1="360.959" y1="179.385" x2="321.106" y2="226.88" stroke="#EB6976" stroke-opacity="0.45" stroke-width="4"/>
<line x1="370.959" y1="179.385" x2="331.106" y2="226.88" stroke="#EB6976" stroke-opacity="0.45" stroke-width="4"/>
<line x1="380.959" y1="179.385" x2="341.106" y2="226.88" stroke="#EB6976" stroke-opacity="0.45" stroke-width="4"/>
<line x1="390.959" y1="179.385" x2="351.106" y2="226.88" stroke="#EB6976" stroke-opacity="0.45" stroke-width="4"/>
<line x1="400.958" y1="179.385" x2="361.105" y2="226.88" stroke="#EB6976" stroke-opacity="0.45" stroke-width="4"/>
<line x1="410.959" y1="179.385" x2="371.106" y2="226.88" stroke="#EB6976" stroke-opacity="0.45" stroke-width="4"/>
<line x1="420.959" y1="179.385" x2="381.106" y2="226.88" stroke="#EB6976" stroke-opacity="0.45" stroke-width="4"/>
<line x1="430.959" y1="179.385" x2="391.106" y2="226.88" stroke="#EB6976" stroke-opacity="0.45" stroke-width="4"/>
<line x1="440.958" y1="179.385" x2="401.105" y2="226.88" stroke="#EB6976" stroke-opacity="0.45" stroke-width="4"/>
<line x1="450.96" y1="179.385" x2="411.107" y2="226.88" stroke="#EB6976" stroke-opacity="0.45" stroke-width="4"/>
<line x1="460.96" y1="179.385" x2="421.107" y2="226.88" stroke="#EB6976" stroke-opacity="0.45" stroke-width="4"/>
<line x1="470.96" y1="179.385" x2="431.107" y2="226.88" stroke="#EB6976" stroke-opacity="0.45" stroke-width="4"/>
<line x1="480.96" y1="179.385" x2="441.107" y2="226.88" stroke="#EB6976" stroke-opacity="0.45" stroke-width="4"/>
<line x1="490.96" y1="179.385" x2="451.107" y2="226.88" stroke="#EB6976" stroke-opacity="0.45" stroke-width="4"/>
<line x1="500.96" y1="179.385" x2="461.107" y2="226.88" stroke="#EB6976" stroke-opacity="0.45" stroke-width="4"/>
<line x1="510.96" y1="179.385" x2="471.107" y2="226.88" stroke="#EB6976" stroke-opacity="0.45" stroke-width="4"/>
<line x1="520.96" y1="179.385" x2="481.107" y2="226.88" stroke="#EB6976" stroke-opacity="0.45" stroke-width="4"/>
<line x1="531.958" y1="179.385" x2="492.105" y2="226.88" stroke="#EB6976" stroke-opacity="0.45" stroke-width="4"/>
<line x1="541.958" y1="179.385" x2="502.105" y2="226.88" stroke="#EB6976" stroke-opacity="0.45" stroke-width="4"/>
<line x1="551.958" y1="179.385" x2="512.105" y2="226.88" stroke="#EB6976" stroke-opacity="0.45" stroke-width="4"/>
<line x1="561.958" y1="179.385" x2="522.105" y2="226.88" stroke="#EB6976" stroke-opacity="0.45" stroke-width="4"/>
<line x1="571.96" y1="179.385" x2="532.107" y2="226.88" stroke="#EB6976" stroke-opacity="0.45" stroke-width="4"/>
<line x1="581.96" y1="179.385" x2="542.107" y2="226.88" stroke="#EB6976" stroke-opacity="0.45" stroke-width="4"/>
<line x1="591.958" y1="179.385" x2="552.105" y2="226.88" stroke="#EB6976" stroke-opacity="0.45" stroke-width="4"/>
<line x1="601.96" y1="179.385" x2="562.107" y2="226.88" stroke="#EB6976" stroke-opacity="0.45" stroke-width="4"/>
<line x1="611.96" y1="179.385" x2="572.107" y2="226.88" stroke="#EB6976" stroke-opacity="0.45" stroke-width="4"/>
<line x1="621.96" y1="179.385" x2="582.107" y2="226.88" stroke="#EB6976" stroke-opacity="0.45" stroke-width="4"/>
<line x1="631.96" y1="179.385" x2="592.107" y2="226.88" stroke="#EB6976" stroke-opacity="0.45" stroke-width="4"/>
<line x1="641.96" y1="179.385" x2="602.107" y2="226.88" stroke="#EB6976" stroke-opacity="0.45" stroke-width="4"/>
<line x1="651.96" y1="179.385" x2="612.107" y2="226.88" stroke="#EB6976" stroke-opacity="0.45" stroke-width="4"/>
<line x1="661.96" y1="179.385" x2="622.107" y2="226.88" stroke="#EB6976" stroke-opacity="0.45" stroke-width="4"/>
<line x1="671.96" y1="179.385" x2="632.107" y2="226.88" stroke="#EB6976" stroke-opacity="0.45" stroke-width="4"/>
<line x1="681.96" y1="179.385" x2="642.107" y2="226.88" stroke="#EB6976" stroke-opacity="0.45" stroke-width="4"/>
<line x1="691.96" y1="179.385" x2="652.107" y2="226.88" stroke="#EB6976" stroke-opacity="0.45" stroke-width="4"/>
<line x1="701.959" y1="179.385" x2="662.107" y2="226.88" stroke="#EB6976" stroke-opacity="0.45" stroke-width="4"/>
<line x1="711.959" y1="179.385" x2="672.107" y2="226.88" stroke="#EB6976" stroke-opacity="0.45" stroke-width="4"/>
<line x1="721.959" y1="179.385" x2="682.107" y2="226.88" stroke="#EB6976" stroke-opacity="0.45" stroke-width="4"/>
<line x1="731.959" y1="179.385" x2="692.107" y2="226.88" stroke="#EB6976" stroke-opacity="0.45" stroke-width="4"/>
<line x1="741.959" y1="179.385" x2="702.107" y2="226.88" stroke="#EB6976" stroke-opacity="0.45" stroke-width="4"/>
<line x1="751.959" y1="179.385" x2="712.107" y2="226.88" stroke="#EB6976" stroke-opacity="0.45" stroke-width="4"/>
<line x1="761.959" y1="179.385" x2="722.107" y2="226.88" stroke="#EB6976" stroke-opacity="0.45" stroke-width="4"/>
<line x1="771.959" y1="179.385" x2="732.107" y2="226.88" stroke="#EB6976" stroke-opacity="0.45" stroke-width="4"/>
<line x1="781.959" y1="179.385" x2="742.107" y2="226.88" stroke="#EB6976" stroke-opacity="0.45" stroke-width="4"/>
<line x1="791.959" y1="179.385" x2="752.107" y2="226.88" stroke="#EB6976" stroke-opacity="0.45" stroke-width="4"/>
<line x1="801.959" y1="179.385" x2="762.107" y2="226.88" stroke="#EB6976" stroke-opacity="0.45" stroke-width="4"/>
<line x1="811.959" y1="179.385" x2="772.107" y2="226.88" stroke="#EB6976" stroke-opacity="0.45" stroke-width="4"/>
<line x1="821.959" y1="179.385" x2="782.107" y2="226.88" stroke="#EB6976" stroke-opacity="0.45" stroke-width="4"/>
<line x1="831.959" y1="179.385" x2="792.107" y2="226.88" stroke="#EB6976" stroke-opacity="0.45" stroke-width="4"/>
<line x1="841.959" y1="179.385" x2="802.107" y2="226.88" stroke="#EB6976" stroke-opacity="0.45" stroke-width="4"/>
<line x1="851.959" y1="179.385" x2="812.107" y2="226.88" stroke="#EB6976" stroke-opacity="0.45" stroke-width="4"/>
<line x1="861.959" y1="179.385" x2="822.107" y2="226.88" stroke="#EB6976" stroke-opacity="0.45" stroke-width="4"/>
<line x1="871.959" y1="179.385" x2="832.107" y2="226.88" stroke="#EB6976" stroke-opacity="0.45" stroke-width="4"/>
<line x1="881.959" y1="179.385" x2="842.107" y2="226.88" stroke="#EB6976" stroke-opacity="0.45" stroke-width="4"/>
<line x1="891.959" y1="179.385" x2="852.107" y2="226.88" stroke="#EB6976" stroke-opacity="0.45" stroke-width="4"/>
<line x1="901.959" y1="179.385" x2="862.107" y2="226.88" stroke="#EB6976" stroke-opacity="0.45" stroke-width="4"/>
<line x1="911.959" y1="179.385" x2="872.107" y2="226.88" stroke="#EB6976" stroke-opacity="0.45" stroke-width="4"/>
<line x1="921.959" y1="179.385" x2="882.107" y2="226.88" stroke="#EB6976" stroke-opacity="0.45" stroke-width="4"/>
<line x1="931.959" y1="179.385" x2="892.107" y2="226.88" stroke="#EB6976" stroke-opacity="0.45" stroke-width="4"/>
<line x1="941.959" y1="179.385" x2="902.107" y2="226.88" stroke="#EB6976" stroke-opacity="0.45" stroke-width="4"/>
<line x1="951.959" y1="179.385" x2="912.107" y2="226.88" stroke="#EB6976" stroke-opacity="0.45" stroke-width="4"/>
<line x1="961.959" y1="179.385" x2="922.107" y2="226.88" stroke="#EB6976" stroke-opacity="0.45" stroke-width="4"/>
<line x1="971.958" y1="179.385" x2="932.105" y2="226.88" stroke="#EB6976" stroke-opacity="0.45" stroke-width="4"/>
<line x1="981.385" y1="179.385" x2="941.532" y2="226.88" stroke="#EB6976" stroke-opacity="0.45" stroke-width="4"/>
</g>
<path d="M17.536 130.164V122.568C17.536 122.352 17.5 122.214 17.428 122.154C17.356 122.082 17.212 122.046 16.996 122.046H16.024C15.808 122.046 15.664 122.082 15.592 122.154C15.532 122.214 15.502 122.352 15.502 122.568V130.164C15.502 130.38 15.532 130.524 15.592 130.596C15.664 130.656 15.808 130.686 16.024 130.686H16.996C17.212 130.686 17.356 130.656 17.428 130.596C17.5 130.524 17.536 130.38 17.536 130.164ZM19.174 122.316V130.416C19.174 131.472 18.616 132 17.5 132H15.538C14.41 132 13.846 131.472 13.846 130.416V122.316C13.846 121.26 14.41 120.732 15.538 120.732H17.5C18.616 120.732 19.174 121.26 19.174 122.316ZM24.7477 120.732V132H23.1097V122.046H21.8137V120.732H24.7477Z" fill="#120505" fill-opacity="0.6"/>
<path d="M37.2916 124.26H35.6356V122.532C35.6356 122.316 35.5996 122.178 35.5276 122.118C35.4676 122.046 35.3296 122.01 35.1136 122.01H34.1956C33.9796 122.01 33.8356 122.046 33.7636 122.118C33.6916 122.178 33.6556 122.316 33.6556 122.532V130.218C33.6556 130.434 33.6916 130.578 33.7636 130.65C33.8356 130.71 33.9796 130.74 34.1956 130.74H35.1136C35.3296 130.74 35.4676 130.71 35.5276 130.65C35.5996 130.578 35.6356 130.434 35.6356 130.218V128.508H37.2916V130.416C37.2916 131.484 36.7276 132.018 35.5996 132.018H33.6916C32.5756 132.018 32.0176 131.484 32.0176 130.416V122.316C32.0176 121.26 32.5756 120.732 33.6916 120.732H35.5996C36.7276 120.732 37.2916 121.26 37.2916 122.316V124.26ZM41.9347 120.732H43.9327C45.0487 120.732 45.6067 121.26 45.6067 122.316V130.416C45.6067 131.472 45.0487 132 43.9327 132H41.9347C40.8067 132 40.2427 131.472 40.2427 130.416V122.316C40.2427 121.26 40.8067 120.732 41.9347 120.732ZM43.9867 130.164V122.568C43.9867 122.352 43.9507 122.214 43.8787 122.154C43.8067 122.082 43.6627 122.046 43.4467 122.046H42.4027C42.1867 122.046 42.0427 122.082 41.9707 122.154C41.9107 122.214 41.8807 122.352 41.8807 122.568V130.164C41.8807 130.38 41.9107 130.524 41.9707 130.596C42.0427 130.656 42.1867 130.686 42.4027 130.686H43.4467C43.6627 130.686 43.8067 130.656 43.8787 130.596C43.9507 130.524 43.9867 130.38 43.9867 130.164ZM50.2611 132H48.8391V120.732H50.6211L52.5471 127.716L54.4731 120.732H56.2551V132H54.8331V123.756L53.2851 129.552H51.8091L50.2611 123.774V132ZM59.7044 120.732H61.3244V132H59.7044V120.732ZM69.9637 124.26H68.3077V122.532C68.3077 122.316 68.2717 122.178 68.1997 122.118C68.1397 122.046 68.0017 122.01 67.7857 122.01H66.8677C66.6517 122.01 66.5077 122.046 66.4357 122.118C66.3637 122.178 66.3277 122.316 66.3277 122.532V130.218C66.3277 130.434 66.3637 130.578 66.4357 130.65C66.5077 130.71 66.6517 130.74 66.8677 130.74H67.7857C68.0017 130.74 68.1397 130.71 68.1997 130.65C68.2717 130.578 68.3077 130.434 68.3077 130.218V128.508H69.9637V130.416C69.9637 131.484 69.3997 132.018 68.2717 132.018H66.3637C65.2477 132.018 64.6897 131.484 64.6897 130.416V122.316C64.6897 121.26 65.2477 120.732 66.3637 120.732H68.2717C69.3997 120.732 69.9637 121.26 69.9637 122.316V124.26ZM82.2304 124.26H80.5744V122.532C80.5744 122.316 80.5384 122.178 80.4664 122.118C80.4064 122.046 80.2684 122.01 80.0524 122.01H79.1344C78.9184 122.01 78.7744 122.046 78.7024 122.118C78.6304 122.178 78.5944 122.316 78.5944 122.532V130.218C78.5944 130.434 78.6304 130.578 78.7024 130.65C78.7744 130.71 78.9184 130.74 79.1344 130.74H80.0524C80.2684 130.74 80.4064 130.71 80.4664 130.65C80.5384 130.578 80.5744 130.434 80.5744 130.218V128.508H82.2304V130.416C82.2304 131.484 81.6664 132.018 80.5384 132.018H78.6304C77.5144 132.018 76.9564 131.484 76.9564 130.416V122.316C76.9564 121.26 77.5144 120.732 78.6304 120.732H80.5384C81.6664 120.732 82.2304 121.26 82.2304 122.316V124.26ZM86.8735 120.732H88.8715C89.9875 120.732 90.5455 121.26 90.5455 122.316V130.416C90.5455 131.472 89.9875 132 88.8715 132H86.8735C85.7455 132 85.1815 131.472 85.1815 130.416V122.316C85.1815 121.26 85.7455 120.732 86.8735 120.732ZM88.9255 130.164V122.568C88.9255 122.352 88.8895 122.214 88.8175 122.154C88.7455 122.082 88.6015 122.046 88.3855 122.046H87.3415C87.1255 122.046 86.9815 122.082 86.9095 122.154C86.8495 122.214 86.8195 122.352 86.8195 122.568V130.164C86.8195 130.38 86.8495 130.524 86.9095 130.596C86.9815 130.656 87.1255 130.686 87.3415 130.686H88.3855C88.6015 130.686 88.7455 130.656 88.8175 130.596C88.8895 130.524 88.9255 130.38 88.9255 130.164ZM97.63 120.732H99.304L97.27 132H94.966L92.932 120.732H94.606L96.1 130.506L97.63 120.732ZM103.413 130.686H106.671V132H101.775V120.732H106.545V122.046H103.413V125.52H106.005V126.834H103.413V130.686ZM111.005 127.446V132H109.385V120.732H113.075C114.191 120.732 114.749 121.26 114.749 122.316V125.844C114.749 126.756 114.347 127.278 113.543 127.41L115.325 132H113.579L111.887 127.446H111.005ZM111.005 122.046V126.15H112.589C112.805 126.15 112.949 126.12 113.021 126.06C113.093 125.988 113.129 125.844 113.129 125.628V122.568C113.129 122.352 113.093 122.214 113.021 122.154C112.949 122.082 112.805 122.046 112.589 122.046H111.005ZM121.201 130.164V127.41C121.201 127.194 121.165 127.056 121.093 126.996C121.033 126.924 120.895 126.888 120.679 126.888H119.347C118.255 126.888 117.709 126.354 117.709 125.286V122.316C117.709 121.26 118.267 120.732 119.383 120.732H121.147C122.263 120.732 122.821 121.26 122.821 122.316V123.972H121.183V122.568C121.183 122.352 121.147 122.214 121.075 122.154C121.003 122.082 120.859 122.046 120.643 122.046H119.887C119.671 122.046 119.527 122.082 119.455 122.154C119.383 122.214 119.347 122.352 119.347 122.568V125.07C119.347 125.286 119.383 125.43 119.455 125.502C119.527 125.562 119.671 125.592 119.887 125.592H121.201C122.305 125.592 122.857 126.12 122.857 127.176V130.416C122.857 131.472 122.293 132 121.165 132H119.419C118.303 132 117.745 131.472 117.745 130.416V128.76H119.383V130.164C119.383 130.38 119.419 130.524 119.491 130.596C119.563 130.656 119.707 130.686 119.923 130.686H120.679C120.895 130.686 121.033 130.656 121.093 130.596C121.165 130.524 121.201 130.38 121.201 130.164Z" fill="#120505"/>
<rect x="956" y="190" width="4" height="25" fill="white"/>
<path d="M163.272 122.952V127H161.832V116.984H165.112C166.104 116.984 166.6 117.453 166.6 118.392V121.528C166.6 122.339 166.243 122.803 165.528 122.92L167.112 127H165.56L164.056 122.952H163.272ZM163.272 118.152V121.8H164.68C164.872 121.8 165 121.773 165.064 121.72C165.128 121.656 165.16 121.528 165.16 121.336V118.616C165.16 118.424 165.128 118.301 165.064 118.248C165 118.184 164.872 118.152 164.68 118.152H163.272ZM171.552 125.832H174.448V127H170.096V116.984H174.336V118.152H171.552V121.24H173.856V122.408H171.552V125.832ZM178.94 125.832H181.42V127H177.5V116.984H178.94V125.832ZM185.689 125.832H188.585V127H184.233V116.984H188.473V118.152H185.689V121.24H187.993V122.408H185.689V125.832ZM195.317 127L194.917 124.68H192.805L192.437 127H190.997L192.773 116.984H194.869L196.773 127H195.317ZM192.981 123.512H194.725L193.813 118.232L192.981 123.512ZM202.593 125.368V122.92C202.593 122.728 202.561 122.605 202.497 122.552C202.444 122.488 202.321 122.456 202.129 122.456H200.945C199.975 122.456 199.489 121.981 199.489 121.032V118.392C199.489 117.453 199.985 116.984 200.977 116.984H202.545C203.537 116.984 204.033 117.453 204.033 118.392V119.864H202.577V118.616C202.577 118.424 202.545 118.301 202.481 118.248C202.417 118.184 202.289 118.152 202.097 118.152H201.425C201.233 118.152 201.105 118.184 201.041 118.248C200.977 118.301 200.945 118.424 200.945 118.616V120.84C200.945 121.032 200.977 121.16 201.041 121.224C201.105 121.277 201.233 121.304 201.425 121.304H202.593C203.575 121.304 204.065 121.773 204.065 122.712V125.592C204.065 126.531 203.564 127 202.561 127H201.009C200.017 127 199.521 126.531 199.521 125.592V124.12H200.977V125.368C200.977 125.56 201.009 125.688 201.073 125.752C201.137 125.805 201.265 125.832 201.457 125.832H202.129C202.321 125.832 202.444 125.805 202.497 125.752C202.561 125.688 202.593 125.56 202.593 125.368ZM208.871 125.832H211.767V127H207.415V116.984H211.655V118.152H208.871V121.24H211.175V122.408H208.871V125.832ZM214.851 116.984H218.339C219.331 116.984 219.827 117.453 219.827 118.392V125.592C219.827 126.531 219.331 127 218.339 127H214.851V116.984ZM218.371 125.4V118.584C218.371 118.392 218.339 118.269 218.275 118.216C218.211 118.152 218.083 118.12 217.891 118.12H216.307V125.864H217.891C218.083 125.864 218.211 125.837 218.275 125.784C218.339 125.72 218.371 125.592 218.371 125.4Z" fill="#FEFDBA"/>
<mask id="mask1_565_126" style="mask-type:alpha" maskUnits="userSpaceOnUse" x="272" y="217" width="18" height="5">
<rect x="272" y="217" width="18" height="5" fill="#D9D9D9"/>
</mask>
<g mask="url(#mask1_565_126)">
<line x1="281.194" y1="214.643" x2="273.481" y2="223.835" stroke="#BF674E" stroke-width="2"/>
<line x1="285.194" y1="214.643" x2="277.481" y2="223.835" stroke="#BF674E" stroke-width="2"/>
<line x1="289.194" y1="214.643" x2="281.481" y2="223.835" stroke="#BF674E" stroke-width="2"/>
</g>
<path d="M241 270H370V302H241V270Z" fill="#FDF0F1"/>
<rect x="242" y="271" width="4" height="4" fill="#BF674E" fill-opacity="0.5"/>
<rect x="248" y="271" width="4" height="4" fill="#BF674E" fill-opacity="0.3"/>
<rect x="254" y="271" width="4" height="4" fill="#BF674E" fill-opacity="0.15"/>
<path d="M257.536 290.164V282.568C257.536 282.352 257.5 282.214 257.428 282.154C257.356 282.082 257.212 282.046 256.996 282.046H256.024C255.808 282.046 255.664 282.082 255.592 282.154C255.532 282.214 255.502 282.352 255.502 282.568V290.164C255.502 290.38 255.532 290.524 255.592 290.596C255.664 290.656 255.808 290.686 256.024 290.686H256.996C257.212 290.686 257.356 290.656 257.428 290.596C257.5 290.524 257.536 290.38 257.536 290.164ZM259.174 282.316V290.416C259.174 291.472 258.616 292 257.5 292H255.538C254.41 292 253.846 291.472 253.846 290.416V282.316C253.846 281.26 254.41 280.732 255.538 280.732H257.5C258.616 280.732 259.174 281.26 259.174 282.316ZM263.596 282.568V284.26H261.976V282.316C261.976 281.26 262.534 280.732 263.65 280.732H265.306C266.434 280.732 266.998 281.26 266.998 282.316V285.16C266.998 285.796 266.758 286.168 266.278 286.276C266.758 286.384 266.998 286.732 266.998 287.32V290.416C266.998 291.472 266.434 292 265.306 292H263.65C262.534 292 261.976 291.472 261.976 290.416V288.49H263.596V290.164C263.596 290.38 263.632 290.524 263.704 290.596C263.776 290.656 263.92 290.686 264.136 290.686H264.838C265.054 290.686 265.198 290.656 265.27 290.596C265.342 290.524 265.378 290.38 265.378 290.164V287.464C265.378 287.248 265.342 287.11 265.27 287.05C265.198 286.978 265.054 286.942 264.838 286.942H263.488V285.646H264.838C265.054 285.646 265.198 285.616 265.27 285.556C265.342 285.484 265.378 285.34 265.378 285.124V282.568C265.378 282.352 265.342 282.214 265.27 282.154C265.198 282.082 265.054 282.046 264.838 282.046H264.136C263.92 282.046 263.776 282.082 263.704 282.154C263.632 282.214 263.596 282.352 263.596 282.568Z" fill="#120505" fill-opacity="0.6"/>
<path d="M279.454 284.26H277.798V282.532C277.798 282.316 277.762 282.178 277.69 282.118C277.63 282.046 277.492 282.01 277.276 282.01H276.358C276.142 282.01 275.998 282.046 275.926 282.118C275.854 282.178 275.818 282.316 275.818 282.532V290.218C275.818 290.434 275.854 290.578 275.926 290.65C275.998 290.71 276.142 290.74 276.358 290.74H277.276C277.492 290.74 277.63 290.71 277.69 290.65C277.762 290.578 277.798 290.434 277.798 290.218V288.508H279.454V290.416C279.454 291.484 278.89 292.018 277.762 292.018H275.854C274.738 292.018 274.18 291.484 274.18 290.416V282.316C274.18 281.26 274.738 280.732 275.854 280.732H277.762C278.89 280.732 279.454 281.26 279.454 282.316V284.26ZM284.097 280.732H286.095C287.211 280.732 287.769 281.26 287.769 282.316V290.416C287.769 291.472 287.211 292 286.095 292H284.097C282.969 292 282.405 291.472 282.405 290.416V282.316C282.405 281.26 282.969 280.732 284.097 280.732ZM286.149 290.164V282.568C286.149 282.352 286.113 282.214 286.041 282.154C285.969 282.082 285.825 282.046 285.609 282.046H284.565C284.349 282.046 284.205 282.082 284.133 282.154C284.073 282.214 284.043 282.352 284.043 282.568V290.164C284.043 290.38 284.073 290.524 284.133 290.596C284.205 290.656 284.349 290.686 284.565 290.686H285.609C285.825 290.686 285.969 290.656 286.041 290.596C286.113 290.524 286.149 290.38 286.149 290.164ZM292.423 292H291.001V280.732H292.783L294.709 287.716L296.635 280.732H298.417V292H296.995V283.756L295.447 289.552H293.971L292.423 283.774V292ZM301.866 280.732H303.486V292H301.866V280.732ZM312.126 284.26H310.47V282.532C310.47 282.316 310.434 282.178 310.362 282.118C310.302 282.046 310.164 282.01 309.948 282.01H309.03C308.814 282.01 308.67 282.046 308.598 282.118C308.526 282.178 308.49 282.316 308.49 282.532V290.218C308.49 290.434 308.526 290.578 308.598 290.65C308.67 290.71 308.814 290.74 309.03 290.74H309.948C310.164 290.74 310.302 290.71 310.362 290.65C310.434 290.578 310.47 290.434 310.47 290.218V288.508H312.126V290.416C312.126 291.484 311.562 292.018 310.434 292.018H308.526C307.41 292.018 306.852 291.484 306.852 290.416V282.316C306.852 281.26 307.41 280.732 308.526 280.732H310.434C311.562 280.732 312.126 281.26 312.126 282.316V284.26ZM319.208 280.732H322.898C324.014 280.732 324.572 281.26 324.572 282.316V286.06C324.572 287.116 324.014 287.644 322.898 287.644H320.828V292H319.208V280.732ZM322.952 285.808V282.568C322.952 282.352 322.916 282.214 322.844 282.154C322.772 282.082 322.628 282.046 322.412 282.046H320.828V286.348H322.412C322.628 286.348 322.772 286.312 322.844 286.24C322.916 286.168 322.952 286.024 322.952 285.808ZM331.591 292L331.141 289.39H328.765L328.351 292H326.731L328.729 280.732H331.087L333.229 292H331.591ZM328.963 288.076H330.925L329.899 282.136L328.963 288.076ZM341.001 284.026H339.363V282.532C339.363 282.316 339.327 282.178 339.255 282.118C339.183 282.046 339.039 282.01 338.823 282.01H337.905C337.689 282.01 337.545 282.046 337.473 282.118C337.401 282.178 337.365 282.316 337.365 282.532V290.218C337.365 290.434 337.401 290.578 337.473 290.65C337.545 290.71 337.689 290.74 337.905 290.74H338.823C339.039 290.74 339.183 290.71 339.255 290.65C339.327 290.578 339.363 290.434 339.363 290.218V287.464H338.463V286.204H341.001V290.416C341.001 291.484 340.443 292.018 339.327 292.018H337.401C336.285 292.018 335.727 291.484 335.727 290.416V282.316C335.727 281.26 336.285 280.732 337.401 280.732H339.327C340.443 280.732 341.001 281.26 341.001 282.316V284.026ZM345.768 290.686H349.026V292H344.13V280.732H348.9V282.046H345.768V285.52H348.36V286.834H345.768V290.686ZM354.98 290.164V287.41C354.98 287.194 354.944 287.056 354.872 286.996C354.812 286.924 354.674 286.888 354.458 286.888H353.126C352.034 286.888 351.488 286.354 351.488 285.286V282.316C351.488 281.26 352.046 280.732 353.162 280.732H354.926C356.042 280.732 356.6 281.26 356.6 282.316V283.972H354.962V282.568C354.962 282.352 354.926 282.214 354.854 282.154C354.782 282.082 354.638 282.046 354.422 282.046H353.666C353.45 282.046 353.306 282.082 353.234 282.154C353.162 282.214 353.126 282.352 353.126 282.568V285.07C353.126 285.286 353.162 285.43 353.234 285.502C353.306 285.562 353.45 285.592 353.666 285.592H354.98C356.084 285.592 356.636 286.12 356.636 287.176V290.416C356.636 291.472 356.072 292 354.944 292H353.198C352.082 292 351.524 291.472 351.524 290.416V288.76H353.162V290.164C353.162 290.38 353.198 290.524 353.27 290.596C353.342 290.656 353.486 290.686 353.702 290.686H354.458C354.674 290.686 354.812 290.656 354.872 290.596C354.944 290.524 354.98 290.38 354.98 290.164Z" fill="#120505"/>
<mask id="mask2_565_126" style="mask-type:alpha" maskUnits="userSpaceOnUse" x="372" y="270" width="582" height="32">
<path d="M372 270H954V294.943H439L433 302H372V270Z" fill="#A9F7FB"/>
</mask>
<g mask="url(#mask2_565_126)">
<line x1="383.958" y1="259.385" x2="344.106" y2="306.88" stroke="#EB6976" stroke-opacity="0.45" stroke-width="4"/>
<line x1="393.958" y1="259.385" x2="354.106" y2="306.88" stroke="#EB6976" stroke-opacity="0.45" stroke-width="4"/>
<line x1="403.959" y1="259.385" x2="364.106" y2="306.88" stroke="#EB6976" stroke-opacity="0.45" stroke-width="4"/>
<line x1="413.959" y1="259.385" x2="374.106" y2="306.88" stroke="#EB6976" stroke-opacity="0.45" stroke-width="4"/>
<line x1="423.958" y1="259.385" x2="384.106" y2="306.88" stroke="#EB6976" stroke-opacity="0.45" stroke-width="4"/>
<line x1="433.959" y1="259.385" x2="394.106" y2="306.88" stroke="#EB6976" stroke-opacity="0.45" stroke-width="4"/>
<line x1="443.959" y1="259.385" x2="404.106" y2="306.88" stroke="#EB6976" stroke-opacity="0.45" stroke-width="4"/>
<line x1="453.959" y1="259.385" x2="414.106" y2="306.88" stroke="#EB6976" stroke-opacity="0.45" stroke-width="4"/>
<line x1="463.959" y1="259.385" x2="424.106" y2="306.88" stroke="#EB6976" stroke-opacity="0.45" stroke-width="4"/>
<line x1="473.959" y1="259.385" x2="434.106" y2="306.88" stroke="#EB6976" stroke-opacity="0.45" stroke-width="4"/>
<line x1="483.959" y1="259.385" x2="444.106" y2="306.88" stroke="#EB6976" stroke-opacity="0.45" stroke-width="4"/>
<line x1="493.959" y1="259.385" x2="454.106" y2="306.88" stroke="#EB6976" stroke-opacity="0.45" stroke-width="4"/>
<line x1="503.959" y1="259.385" x2="464.106" y2="306.88" stroke="#EB6976" stroke-opacity="0.45" stroke-width="4"/>
<line x1="513.959" y1="259.385" x2="474.106" y2="306.88" stroke="#EB6976" stroke-opacity="0.45" stroke-width="4"/>
<line x1="523.959" y1="259.385" x2="484.106" y2="306.88" stroke="#EB6976" stroke-opacity="0.45" stroke-width="4"/>
<line x1="533.959" y1="259.385" x2="494.106" y2="306.88" stroke="#EB6976" stroke-opacity="0.45" stroke-width="4"/>
<line x1="543.959" y1="259.385" x2="504.106" y2="306.88" stroke="#EB6976" stroke-opacity="0.45" stroke-width="4"/>
<line x1="553.959" y1="259.385" x2="514.106" y2="306.88" stroke="#EB6976" stroke-opacity="0.45" stroke-width="4"/>
<line x1="563.958" y1="259.385" x2="524.105" y2="306.88" stroke="#EB6976" stroke-opacity="0.45" stroke-width="4"/>
<line x1="573.959" y1="259.385" x2="534.106" y2="306.88" stroke="#EB6976" stroke-opacity="0.45" stroke-width="4"/>
<line x1="583.959" y1="259.385" x2="544.106" y2="306.88" stroke="#EB6976" stroke-opacity="0.45" stroke-width="4"/>
<line x1="593.959" y1="259.385" x2="554.106" y2="306.88" stroke="#EB6976" stroke-opacity="0.45" stroke-width="4"/>
<line x1="603.958" y1="259.385" x2="564.105" y2="306.88" stroke="#EB6976" stroke-opacity="0.45" stroke-width="4"/>
<line x1="613.96" y1="259.385" x2="574.107" y2="306.88" stroke="#EB6976" stroke-opacity="0.45" stroke-width="4"/>
<line x1="623.96" y1="259.385" x2="584.107" y2="306.88" stroke="#EB6976" stroke-opacity="0.45" stroke-width="4"/>
<line x1="633.96" y1="259.385" x2="594.107" y2="306.88" stroke="#EB6976" stroke-opacity="0.45" stroke-width="4"/>
<line x1="643.96" y1="259.385" x2="604.107" y2="306.88" stroke="#EB6976" stroke-opacity="0.45" stroke-width="4"/>
<line x1="653.96" y1="259.385" x2="614.107" y2="306.88" stroke="#EB6976" stroke-opacity="0.45" stroke-width="4"/>
<line x1="663.96" y1="259.385" x2="624.107" y2="306.88" stroke="#EB6976" stroke-opacity="0.45" stroke-width="4"/>
<line x1="673.96" y1="259.385" x2="634.107" y2="306.88" stroke="#EB6976" stroke-opacity="0.45" stroke-width="4"/>
<line x1="683.96" y1="259.385" x2="644.107" y2="306.88" stroke="#EB6976" stroke-opacity="0.45" stroke-width="4"/>
<line x1="694.958" y1="259.385" x2="655.105" y2="306.88" stroke="#EB6976" stroke-opacity="0.45" stroke-width="4"/>
<line x1="704.958" y1="259.385" x2="665.105" y2="306.88" stroke="#EB6976" stroke-opacity="0.45" stroke-width="4"/>
<line x1="714.958" y1="259.385" x2="675.105" y2="306.88" stroke="#EB6976" stroke-opacity="0.45" stroke-width="4"/>
<line x1="724.958" y1="259.385" x2="685.105" y2="306.88" stroke="#EB6976" stroke-opacity="0.45" stroke-width="4"/>
<line x1="734.96" y1="259.385" x2="695.107" y2="306.88" stroke="#EB6976" stroke-opacity="0.45" stroke-width="4"/>
<line x1="744.96" y1="259.385" x2="705.107" y2="306.88" stroke="#EB6976" stroke-opacity="0.45" stroke-width="4"/>
<line x1="754.958" y1="259.385" x2="715.105" y2="306.88" stroke="#EB6976" stroke-opacity="0.45" stroke-width="4"/>
<line x1="764.96" y1="259.385" x2="725.107" y2="306.88" stroke="#EB6976" stroke-opacity="0.45" stroke-width="4"/>
<line x1="774.96" y1="259.385" x2="735.107" y2="306.88" stroke="#EB6976" stroke-opacity="0.45" stroke-width="4"/>
<line x1="784.96" y1="259.385" x2="745.107" y2="306.88" stroke="#EB6976" stroke-opacity="0.45" stroke-width="4"/>
<line x1="794.96" y1="259.385" x2="755.107" y2="306.88" stroke="#EB6976" stroke-opacity="0.45" stroke-width="4"/>
<line x1="804.96" y1="259.385" x2="765.107" y2="306.88" stroke="#EB6976" stroke-opacity="0.45" stroke-width="4"/>
<line x1="814.96" y1="259.385" x2="775.107" y2="306.88" stroke="#EB6976" stroke-opacity="0.45" stroke-width="4"/>
<line x1="824.96" y1="259.385" x2="785.107" y2="306.88" stroke="#EB6976" stroke-opacity="0.45" stroke-width="4"/>
<line x1="834.96" y1="259.385" x2="795.107" y2="306.88" stroke="#EB6976" stroke-opacity="0.45" stroke-width="4"/>
<line x1="844.96" y1="259.385" x2="805.107" y2="306.88" stroke="#EB6976" stroke-opacity="0.45" stroke-width="4"/>
<line x1="854.96" y1="259.385" x2="815.107" y2="306.88" stroke="#EB6976" stroke-opacity="0.45" stroke-width="4"/>
<line x1="864.959" y1="259.385" x2="825.107" y2="306.88" stroke="#EB6976" stroke-opacity="0.45" stroke-width="4"/>
<line x1="874.959" y1="259.385" x2="835.107" y2="306.88" stroke="#EB6976" stroke-opacity="0.45" stroke-width="4"/>
<line x1="884.959" y1="259.385" x2="845.107" y2="306.88" stroke="#EB6976" stroke-opacity="0.45" stroke-width="4"/>
<line x1="894.959" y1="259.385" x2="855.107" y2="306.88" stroke="#EB6976" stroke-opacity="0.45" stroke-width="4"/>
<line x1="904.959" y1="259.385" x2="865.107" y2="306.88" stroke="#EB6976" stroke-opacity="0.45" stroke-width="4"/>
<line x1="914.959" y1="259.385" x2="875.107" y2="306.88" stroke="#EB6976" stroke-opacity="0.45" stroke-width="4"/>
<line x1="924.959" y1="259.385" x2="885.107" y2="306.88" stroke="#EB6976" stroke-opacity="0.45" stroke-width="4"/>
<line x1="934.959" y1="259.385" x2="895.107" y2="306.88" stroke="#EB6976" stroke-opacity="0.45" stroke-width="4"/>
<line x1="944.959" y1="259.385" x2="905.107" y2="306.88" stroke="#EB6976" stroke-opacity="0.45" stroke-width="4"/>
<line x1="954.959" y1="259.385" x2="915.107" y2="306.88" stroke="#EB6976" stroke-opacity="0.45" stroke-width="4"/>
<line x1="964.959" y1="259.385" x2="925.107" y2="306.88" stroke="#EB6976" stroke-opacity="0.45" stroke-width="4"/>
<line x1="974.959" y1="259.385" x2="935.107" y2="306.88" stroke="#EB6976" stroke-opacity="0.45" stroke-width="4"/>
<line x1="984.959" y1="259.385" x2="945.107" y2="306.88" stroke="#EB6976" stroke-opacity="0.45" stroke-width="4"/>
<line x1="994.959" y1="259.385" x2="955.107" y2="306.88" stroke="#EB6976" stroke-opacity="0.45" stroke-width="4"/>
</g>
<path d="M165 278H164.5V278.207L164.646 278.354L165 278ZM173 286L172.646 286.354L172.793 286.5H173V286ZM237.354 286.354C237.549 286.158 237.549 285.842 237.354 285.646L234.172 282.464C233.976 282.269 233.66 282.269 233.464 282.464C233.269 282.66 233.269 282.976 233.464 283.172L236.293 286L233.464 288.828C233.269 289.024 233.269 289.34 233.464 289.536C233.66 289.731 233.976 289.731 234.172 289.536L237.354 286.354ZM164.5 226V278H165.5V226H164.5ZM164.646 278.354L172.646 286.354L173.354 285.646L165.354 277.646L164.646 278.354ZM173 286.5H237V285.5H173V286.5Z" fill="#BF503B" fill-opacity="0.6"/>
<path d="M72 198H71.5V198.207L71.6464 198.354L72 198ZM80 206L79.6464 206.354L79.7929 206.5H80V206ZM117.354 206.354C117.549 206.158 117.549 205.842 117.354 205.646L114.172 202.464C113.976 202.269 113.66 202.269 113.464 202.464C113.269 202.66 113.269 202.976 113.464 203.172L116.293 206L113.464 208.828C113.269 209.024 113.269 209.34 113.464 209.536C113.66 209.731 113.976 209.731 114.172 209.536L117.354 206.354ZM71.5 146V198H72.5V146H71.5ZM71.6464 198.354L79.6464 206.354L80.3536 205.646L72.3536 197.646L71.6464 198.354ZM80 206.5H117V205.5H80V206.5Z" fill="#BF503B" fill-opacity="0.6"/>
<rect x="956" y="270" width="4" height="25" fill="white"/>
<mask id="mask3_565_126" style="mask-type:alpha" maskUnits="userSpaceOnUse" x="434" y="297" width="18" height="5">
<rect x="434" y="297" width="18" height="5" fill="#D9D9D9"/>
</mask>
<g mask="url(#mask3_565_126)">
<line x1="443.194" y1="294.643" x2="435.48" y2="303.835" stroke="#BF674E" stroke-width="2"/>
<line x1="447.194" y1="294.643" x2="439.48" y2="303.835" stroke="#BF674E" stroke-width="2"/>
<line x1="451.194" y1="294.643" x2="443.48" y2="303.835" stroke="#BF674E" stroke-width="2"/>
</g>
<path d="M361 350H473V382H361V350Z" fill="#FDF0F1"/>
<rect x="362" y="351" width="4" height="4" fill="#BF674E" fill-opacity="0.5"/>
<rect x="368" y="351" width="4" height="4" fill="#BF674E" fill-opacity="0.3"/>
<rect x="374" y="351" width="4" height="4" fill="#BF674E" fill-opacity="0.15"/>
<path d="M377.536 370.164V362.568C377.536 362.352 377.5 362.214 377.428 362.154C377.356 362.082 377.212 362.046 376.996 362.046H376.024C375.808 362.046 375.664 362.082 375.592 362.154C375.532 362.214 375.502 362.352 375.502 362.568V370.164C375.502 370.38 375.532 370.524 375.592 370.596C375.664 370.656 375.808 370.686 376.024 370.686H376.996C377.212 370.686 377.356 370.656 377.428 370.596C377.5 370.524 377.536 370.38 377.536 370.164ZM379.174 362.316V370.416C379.174 371.472 378.616 372 377.5 372H375.538C374.41 372 373.846 371.472 373.846 370.416V362.316C373.846 361.26 374.41 360.732 375.538 360.732H377.5C378.616 360.732 379.174 361.26 379.174 362.316ZM387.988 368.436V369.768H386.98V372H385.414V369.768H381.562V368.418L384.802 360.732H386.422L383.11 368.436H385.414V366.276H386.98V368.436H387.988Z" fill="#120505" fill-opacity="0.6"/>
<path d="M398.55 372L398.1 369.39H395.724L395.31 372H393.69L395.688 360.732H398.046L400.188 372H398.55ZM395.922 368.076H397.884L396.858 362.136L395.922 368.076ZM402.92 360.732H404.54V372H402.92V360.732ZM409.615 367.446V372H407.995V360.732H411.685C412.801 360.732 413.359 361.26 413.359 362.316V365.844C413.359 366.756 412.957 367.278 412.153 367.41L413.935 372H412.189L410.497 367.446H409.615ZM409.615 362.046V366.15H411.199C411.415 366.15 411.559 366.12 411.631 366.06C411.703 365.988 411.739 365.844 411.739 365.628V362.568C411.739 362.352 411.703 362.214 411.631 362.154C411.559 362.082 411.415 362.046 411.199 362.046H409.615ZM416.608 360.732H420.532C421.648 360.732 422.206 361.26 422.206 362.316V370.416C422.206 371.472 421.648 372 420.532 372H416.608V360.732ZM420.568 370.2V362.532C420.568 362.316 420.532 362.178 420.46 362.118C420.388 362.046 420.244 362.01 420.028 362.01H418.246V370.722H420.028C420.244 370.722 420.388 370.692 420.46 370.632C420.532 370.56 420.568 370.416 420.568 370.2ZM427.05 367.446V372H425.43V360.732H429.12C430.236 360.732 430.794 361.26 430.794 362.316V365.844C430.794 366.756 430.392 367.278 429.588 367.41L431.37 372H429.624L427.932 367.446H427.05ZM427.05 362.046V366.15H428.634C428.85 366.15 428.994 366.12 429.066 366.06C429.138 365.988 429.174 365.844 429.174 365.628V362.568C429.174 362.352 429.138 362.214 429.066 362.154C428.994 362.082 428.85 362.046 428.634 362.046H427.05ZM435.609 360.732H437.607C438.723 360.732 439.281 361.26 439.281 362.316V370.416C439.281 371.472 438.723 372 437.607 372H435.609C434.481 372 433.917 371.472 433.917 370.416V362.316C433.917 361.26 434.481 360.732 435.609 360.732ZM437.661 370.164V362.568C437.661 362.352 437.625 362.214 437.553 362.154C437.481 362.082 437.337 362.046 437.121 362.046H436.077C435.861 362.046 435.717 362.082 435.645 362.154C435.585 362.214 435.555 362.352 435.555 362.568V370.164C435.555 370.38 435.585 370.524 435.645 370.596C435.717 370.656 435.861 370.686 436.077 370.686H437.121C437.337 370.686 437.481 370.656 437.553 370.596C437.625 370.524 437.661 370.38 437.661 370.164ZM442.513 360.732H446.203C447.319 360.732 447.877 361.26 447.877 362.316V366.06C447.877 367.116 447.319 367.644 446.203 367.644H444.133V372H442.513V360.732ZM446.257 365.808V362.568C446.257 362.352 446.221 362.214 446.149 362.154C446.077 362.082 445.933 362.046 445.717 362.046H444.133V366.348H445.717C445.933 366.348 446.077 366.312 446.149 366.24C446.221 366.168 446.257 366.024 446.257 365.808ZM453.996 370.164V367.41C453.996 367.194 453.96 367.056 453.888 366.996C453.828 366.924 453.69 366.888 453.474 366.888H452.142C451.05 366.888 450.504 366.354 450.504 365.286V362.316C450.504 361.26 451.062 360.732 452.178 360.732H453.942C455.058 360.732 455.616 361.26 455.616 362.316V363.972H453.978V362.568C453.978 362.352 453.942 362.214 453.87 362.154C453.798 362.082 453.654 362.046 453.438 362.046H452.682C452.466 362.046 452.322 362.082 452.25 362.154C452.178 362.214 452.142 362.352 452.142 362.568V365.07C452.142 365.286 452.178 365.43 452.25 365.502C452.322 365.562 452.466 365.592 452.682 365.592H453.996C455.1 365.592 455.652 366.12 455.652 367.176V370.416C455.652 371.472 455.088 372 453.96 372H452.214C451.098 372 450.54 371.472 450.54 370.416V368.76H452.178V370.164C452.178 370.38 452.214 370.524 452.286 370.596C452.358 370.656 452.502 370.686 452.718 370.686H453.474C453.69 370.686 453.828 370.656 453.888 370.596C453.96 370.524 453.996 370.38 453.996 370.164Z" fill="#120505"/>
<mask id="mask4_565_126" style="mask-type:alpha" maskUnits="userSpaceOnUse" x="475" y="350" width="479" height="32">
<path d="M475 350H954V374.943H542L536 382H475V350Z" fill="#D9D9D9"/>
</mask>
<g mask="url(#mask4_565_126)">
<line x1="486.958" y1="339.385" x2="447.106" y2="386.88" stroke="#EB6976" stroke-opacity="0.45" stroke-width="4"/>
<line x1="496.958" y1="339.385" x2="457.106" y2="386.88" stroke="#EB6976" stroke-opacity="0.45" stroke-width="4"/>
<line x1="506.959" y1="339.385" x2="467.106" y2="386.88" stroke="#EB6976" stroke-opacity="0.45" stroke-width="4"/>
<line x1="516.959" y1="339.385" x2="477.106" y2="386.88" stroke="#EB6976" stroke-opacity="0.45" stroke-width="4"/>
<line x1="526.958" y1="339.385" x2="487.106" y2="386.88" stroke="#EB6976" stroke-opacity="0.45" stroke-width="4"/>
<line x1="536.959" y1="339.385" x2="497.106" y2="386.88" stroke="#EB6976" stroke-opacity="0.45" stroke-width="4"/>
<line x1="546.959" y1="339.385" x2="507.106" y2="386.88" stroke="#EB6976" stroke-opacity="0.45" stroke-width="4"/>
<line x1="556.959" y1="339.385" x2="517.106" y2="386.88" stroke="#EB6976" stroke-opacity="0.45" stroke-width="4"/>
<line x1="566.959" y1="339.385" x2="527.106" y2="386.88" stroke="#EB6976" stroke-opacity="0.45" stroke-width="4"/>
<line x1="576.959" y1="339.385" x2="537.106" y2="386.88" stroke="#EB6976" stroke-opacity="0.45" stroke-width="4"/>
<line x1="586.959" y1="339.385" x2="547.106" y2="386.88" stroke="#EB6976" stroke-opacity="0.45" stroke-width="4"/>
<line x1="596.959" y1="339.385" x2="557.106" y2="386.88" stroke="#EB6976" stroke-opacity="0.45" stroke-width="4"/>
<line x1="606.959" y1="339.385" x2="567.106" y2="386.88" stroke="#EB6976" stroke-opacity="0.45" stroke-width="4"/>
<line x1="616.959" y1="339.385" x2="577.106" y2="386.88" stroke="#EB6976" stroke-opacity="0.45" stroke-width="4"/>
<line x1="626.959" y1="339.385" x2="587.106" y2="386.88" stroke="#EB6976" stroke-opacity="0.45" stroke-width="4"/>
<line x1="636.959" y1="339.385" x2="597.106" y2="386.88" stroke="#EB6976" stroke-opacity="0.45" stroke-width="4"/>
<line x1="646.959" y1="339.385" x2="607.106" y2="386.88" stroke="#EB6976" stroke-opacity="0.45" stroke-width="4"/>
<line x1="656.959" y1="339.385" x2="617.106" y2="386.88" stroke="#EB6976" stroke-opacity="0.45" stroke-width="4"/>
<line x1="666.958" y1="339.385" x2="627.105" y2="386.88" stroke="#EB6976" stroke-opacity="0.45" stroke-width="4"/>
<line x1="676.959" y1="339.385" x2="637.106" y2="386.88" stroke="#EB6976" stroke-opacity="0.45" stroke-width="4"/>
<line x1="686.959" y1="339.385" x2="647.106" y2="386.88" stroke="#EB6976" stroke-opacity="0.45" stroke-width="4"/>
<line x1="696.959" y1="339.385" x2="657.106" y2="386.88" stroke="#EB6976" stroke-opacity="0.45" stroke-width="4"/>
<line x1="706.958" y1="339.385" x2="667.105" y2="386.88" stroke="#EB6976" stroke-opacity="0.45" stroke-width="4"/>
<line x1="716.96" y1="339.385" x2="677.107" y2="386.88" stroke="#EB6976" stroke-opacity="0.45" stroke-width="4"/>
<line x1="726.96" y1="339.385" x2="687.107" y2="386.88" stroke="#EB6976" stroke-opacity="0.45" stroke-width="4"/>
<line x1="736.96" y1="339.385" x2="697.107" y2="386.88" stroke="#EB6976" stroke-opacity="0.45" stroke-width="4"/>
<line x1="746.96" y1="339.385" x2="707.107" y2="386.88" stroke="#EB6976" stroke-opacity="0.45" stroke-width="4"/>
<line x1="756.96" y1="339.385" x2="717.107" y2="386.88" stroke="#EB6976" stroke-opacity="0.45" stroke-width="4"/>
<line x1="766.96" y1="339.385" x2="727.107" y2="386.88" stroke="#EB6976" stroke-opacity="0.45" stroke-width="4"/>
<line x1="776.96" y1="339.385" x2="737.107" y2="386.88" stroke="#EB6976" stroke-opacity="0.45" stroke-width="4"/>
<line x1="786.96" y1="339.385" x2="747.107" y2="386.88" stroke="#EB6976" stroke-opacity="0.45" stroke-width="4"/>
<line x1="797.958" y1="339.385" x2="758.105" y2="386.88" stroke="#EB6976" stroke-opacity="0.45" stroke-width="4"/>
<line x1="807.958" y1="339.385" x2="768.105" y2="386.88" stroke="#EB6976" stroke-opacity="0.45" stroke-width="4"/>
<line x1="817.958" y1="339.385" x2="778.105" y2="386.88" stroke="#EB6976" stroke-opacity="0.45" stroke-width="4"/>
<line x1="827.958" y1="339.385" x2="788.105" y2="386.88" stroke="#EB6976" stroke-opacity="0.45" stroke-width="4"/>
<line x1="837.96" y1="339.385" x2="798.107" y2="386.88" stroke="#EB6976" stroke-opacity="0.45" stroke-width="4"/>
<line x1="847.96" y1="339.385" x2="808.107" y2="386.88" stroke="#EB6976" stroke-opacity="0.45" stroke-width="4"/>
<line x1="857.958" y1="339.385" x2="818.105" y2="386.88" stroke="#EB6976" stroke-opacity="0.45" stroke-width="4"/>
<line x1="867.96" y1="339.385" x2="828.107" y2="386.88" stroke="#EB6976" stroke-opacity="0.45" stroke-width="4"/>
<line x1="877.96" y1="339.385" x2="838.107" y2="386.88" stroke="#EB6976" stroke-opacity="0.45" stroke-width="4"/>
<line x1="887.96" y1="339.385" x2="848.107" y2="386.88" stroke="#EB6976" stroke-opacity="0.45" stroke-width="4"/>
<line x1="897.96" y1="339.385" x2="858.107" y2="386.88" stroke="#EB6976" stroke-opacity="0.45" stroke-width="4"/>
<line x1="907.96" y1="339.385" x2="868.107" y2="386.88" stroke="#EB6976" stroke-opacity="0.45" stroke-width="4"/>
<line x1="917.96" y1="339.385" x2="878.107" y2="386.88" stroke="#EB6976" stroke-opacity="0.45" stroke-width="4"/>
<line x1="927.96" y1="339.385" x2="888.107" y2="386.88" stroke="#EB6976" stroke-opacity="0.45" stroke-width="4"/>
<line x1="937.96" y1="339.385" x2="898.107" y2="386.88" stroke="#EB6976" stroke-opacity="0.45" stroke-width="4"/>
<line x1="947.96" y1="339.385" x2="908.107" y2="386.88" stroke="#EB6976" stroke-opacity="0.45" stroke-width="4"/>
<line x1="957.96" y1="339.385" x2="918.107" y2="386.88" stroke="#EB6976" stroke-opacity="0.45" stroke-width="4"/>
<line x1="967.959" y1="339.385" x2="928.107" y2="386.88" stroke="#EB6976" stroke-opacity="0.45" stroke-width="4"/>
<line x1="977.959" y1="339.385" x2="938.107" y2="386.88" stroke="#EB6976" stroke-opacity="0.45" stroke-width="4"/>
<line x1="987.959" y1="339.385" x2="948.107" y2="386.88" stroke="#EB6976" stroke-opacity="0.45" stroke-width="4"/>
</g>
<path d="M314 366L313.646 366.354L313.793 366.5H314V366ZM357.354 366.354C357.549 366.158 357.549 365.842 357.354 365.646L354.172 362.464C353.976 362.269 353.66 362.269 353.464 362.464C353.269 362.66 353.269 362.976 353.464 363.172L356.293 366L353.464 368.828C353.269 369.024 353.269 369.34 353.464 369.536C353.66 369.731 353.976 369.731 354.172 369.536L357.354 366.354ZM305.646 358.354L313.646 366.354L314.354 365.646L306.354 357.646L305.646 358.354ZM314 366.5H357V365.5H314V366.5Z" fill="#BF503B" fill-opacity="0.6"/>
<rect x="956" y="350" width="4" height="25" fill="white"/>
<mask id="mask5_565_126" style="mask-type:alpha" maskUnits="userSpaceOnUse" x="537" y="377" width="18" height="5">
<rect x="537" y="377" width="18" height="5" fill="#D9D9D9"/>
</mask>
<g mask="url(#mask5_565_126)">
<line x1="546.194" y1="374.643" x2="538.48" y2="383.835" stroke="#BF674E" stroke-width="2"/>
<line x1="550.194" y1="374.643" x2="542.48" y2="383.835" stroke="#BF674E" stroke-width="2"/>
<line x1="554.194" y1="374.643" x2="546.48" y2="383.835" stroke="#BF674E" stroke-width="2"/>
</g>
<path d="M361 430H473V462H361V430Z" fill="#FDF0F1"/>
<rect x="362" y="431" width="4" height="4" fill="#BF674E" fill-opacity="0.5"/>
<rect x="368" y="431" width="4" height="4" fill="#BF674E" fill-opacity="0.3"/>
<rect x="374" y="431" width="4" height="4" fill="#BF674E" fill-opacity="0.15"/>
<path d="M377.536 450.164V442.568C377.536 442.352 377.5 442.214 377.428 442.154C377.356 442.082 377.212 442.046 376.996 442.046H376.024C375.808 442.046 375.664 442.082 375.592 442.154C375.532 442.214 375.502 442.352 375.502 442.568V450.164C375.502 450.38 375.532 450.524 375.592 450.596C375.664 450.656 375.808 450.686 376.024 450.686H376.996C377.212 450.686 377.356 450.656 377.428 450.596C377.5 450.524 377.536 450.38 377.536 450.164ZM379.174 442.316V450.416C379.174 451.472 378.616 452 377.5 452H375.538C374.41 452 373.846 451.472 373.846 450.416V442.316C373.846 441.26 374.41 440.732 375.538 440.732H377.5C378.616 440.732 379.174 441.26 379.174 442.316ZM383.83 444.962H385.576C386.704 444.962 387.268 445.49 387.268 446.546V450.416C387.268 451.472 386.704 452 385.576 452H383.848C382.732 452 382.174 451.472 382.174 450.416V448.418H383.812V450.164C383.812 450.38 383.848 450.524 383.92 450.596C383.992 450.656 384.136 450.686 384.352 450.686H385.09C385.306 450.686 385.45 450.656 385.522 450.596C385.594 450.524 385.63 450.38 385.63 450.164V446.798C385.63 446.582 385.594 446.438 385.522 446.366C385.45 446.294 385.306 446.258 385.09 446.258H382.21V440.732H387.232V442.046H383.83V444.962Z" fill="#120505" fill-opacity="0.6"/>
<path d="M399.506 444.26H397.85V442.532C397.85 442.316 397.814 442.178 397.742 442.118C397.682 442.046 397.544 442.01 397.328 442.01H396.41C396.194 442.01 396.05 442.046 395.978 442.118C395.906 442.178 395.87 442.316 395.87 442.532V450.218C395.87 450.434 395.906 450.578 395.978 450.65C396.05 450.71 396.194 450.74 396.41 450.74H397.328C397.544 450.74 397.682 450.71 397.742 450.65C397.814 450.578 397.85 450.434 397.85 450.218V448.508H399.506V450.416C399.506 451.484 398.942 452.018 397.814 452.018H395.906C394.79 452.018 394.232 451.484 394.232 450.416V442.316C394.232 441.26 394.79 440.732 395.906 440.732H397.814C398.942 440.732 399.506 441.26 399.506 442.316V444.26ZM404.15 440.732H406.148C407.264 440.732 407.822 441.26 407.822 442.316V450.416C407.822 451.472 407.264 452 406.148 452H404.15C403.022 452 402.458 451.472 402.458 450.416V442.316C402.458 441.26 403.022 440.732 404.15 440.732ZM406.202 450.164V442.568C406.202 442.352 406.166 442.214 406.094 442.154C406.022 442.082 405.878 442.046 405.662 442.046H404.618C404.402 442.046 404.258 442.082 404.186 442.154C404.126 442.214 404.096 442.352 404.096 442.568V450.164C404.096 450.38 404.126 450.524 404.186 450.596C404.258 450.656 404.402 450.686 404.618 450.686H405.662C405.878 450.686 406.022 450.656 406.094 450.596C406.166 450.524 406.202 450.38 406.202 450.164ZM412.674 450.686H415.464V452H411.054V440.732H412.674V450.686ZM419.528 450.686H422.318V452H417.908V440.732H419.528V450.686ZM428.902 452L428.452 449.39H426.076L425.662 452H424.042L426.04 440.732H428.398L430.54 452H428.902ZM426.274 448.076H428.236L427.21 442.136L426.274 448.076ZM437.088 445.106V442.532C437.088 442.316 437.052 442.178 436.98 442.118C436.908 442.046 436.764 442.01 436.548 442.01H434.748V445.628H436.548C436.764 445.628 436.908 445.598 436.98 445.538C437.052 445.466 437.088 445.322 437.088 445.106ZM437.088 450.2V447.428C437.088 447.212 437.052 447.074 436.98 447.014C436.908 446.942 436.764 446.906 436.548 446.906H434.748V450.722H436.548C436.764 450.722 436.908 450.692 436.98 450.632C437.052 450.56 437.088 450.416 437.088 450.2ZM433.128 440.732H437.034C438.162 440.732 438.726 441.26 438.726 442.316V445.178C438.726 445.814 438.486 446.186 438.006 446.294C438.486 446.414 438.726 446.762 438.726 447.338V450.416C438.726 451.472 438.162 452 437.034 452H433.128V440.732ZM445.173 450.164V447.41C445.173 447.194 445.137 447.056 445.065 446.996C445.005 446.924 444.867 446.888 444.651 446.888H443.319C442.227 446.888 441.681 446.354 441.681 445.286V442.316C441.681 441.26 442.239 440.732 443.355 440.732H445.119C446.235 440.732 446.793 441.26 446.793 442.316V443.972H445.155V442.568C445.155 442.352 445.119 442.214 445.047 442.154C444.975 442.082 444.831 442.046 444.615 442.046H443.859C443.643 442.046 443.499 442.082 443.427 442.154C443.355 442.214 443.319 442.352 443.319 442.568V445.07C443.319 445.286 443.355 445.43 443.427 445.502C443.499 445.562 443.643 445.592 443.859 445.592H445.173C446.277 445.592 446.829 446.12 446.829 447.176V450.416C446.829 451.472 446.265 452 445.137 452H443.391C442.275 452 441.717 451.472 441.717 450.416V448.76H443.355V450.164C443.355 450.38 443.391 450.524 443.463 450.596C443.535 450.656 443.679 450.686 443.895 450.686H444.651C444.867 450.686 445.005 450.656 445.065 450.596C445.137 450.524 445.173 450.38 445.173 450.164Z" fill="#120505"/>
<mask id="mask6_565_126" style="mask-type:alpha" maskUnits="userSpaceOnUse" x="475" y="430" width="479" height="32">
<path d="M475 430H954V454.943H542L536 462H475V430Z" fill="#D9D9D9"/>
</mask>
<g mask="url(#mask6_565_126)">
<line x1="486.958" y1="419.385" x2="447.106" y2="466.88" stroke="#EB6976" stroke-opacity="0.45" stroke-width="4"/>
<line x1="496.958" y1="419.385" x2="457.106" y2="466.88" stroke="#EB6976" stroke-opacity="0.45" stroke-width="4"/>
<line x1="506.959" y1="419.385" x2="467.106" y2="466.88" stroke="#EB6976" stroke-opacity="0.45" stroke-width="4"/>
<line x1="516.959" y1="419.385" x2="477.106" y2="466.88" stroke="#EB6976" stroke-opacity="0.45" stroke-width="4"/>
<line x1="526.958" y1="419.385" x2="487.106" y2="466.88" stroke="#EB6976" stroke-opacity="0.45" stroke-width="4"/>
<line x1="536.959" y1="419.385" x2="497.106" y2="466.88" stroke="#EB6976" stroke-opacity="0.45" stroke-width="4"/>
<line x1="546.959" y1="419.385" x2="507.106" y2="466.88" stroke="#EB6976" stroke-opacity="0.45" stroke-width="4"/>
<line x1="556.959" y1="419.385" x2="517.106" y2="466.88" stroke="#EB6976" stroke-opacity="0.45" stroke-width="4"/>
<line x1="566.959" y1="419.385" x2="527.106" y2="466.88" stroke="#EB6976" stroke-opacity="0.45" stroke-width="4"/>
<line x1="576.959" y1="419.385" x2="537.106" y2="466.88" stroke="#EB6976" stroke-opacity="0.45" stroke-width="4"/>
<line x1="586.959" y1="419.385" x2="547.106" y2="466.88" stroke="#EB6976" stroke-opacity="0.45" stroke-width="4"/>
<line x1="596.959" y1="419.385" x2="557.106" y2="466.88" stroke="#EB6976" stroke-opacity="0.45" stroke-width="4"/>
<line x1="606.959" y1="419.385" x2="567.106" y2="466.88" stroke="#EB6976" stroke-opacity="0.45" stroke-width="4"/>
<line x1="616.959" y1="419.385" x2="577.106" y2="466.88" stroke="#EB6976" stroke-opacity="0.45" stroke-width="4"/>
<line x1="626.959" y1="419.385" x2="587.106" y2="466.88" stroke="#EB6976" stroke-opacity="0.45" stroke-width="4"/>
<line x1="636.959" y1="419.385" x2="597.106" y2="466.88" stroke="#EB6976" stroke-opacity="0.45" stroke-width="4"/>
<line x1="646.959" y1="419.385" x2="607.106" y2="466.88" stroke="#EB6976" stroke-opacity="0.45" stroke-width="4"/>
<line x1="656.959" y1="419.385" x2="617.106" y2="466.88" stroke="#EB6976" stroke-opacity="0.45" stroke-width="4"/>
<line x1="666.958" y1="419.385" x2="627.105" y2="466.88" stroke="#EB6976" stroke-opacity="0.45" stroke-width="4"/>
<line x1="676.959" y1="419.385" x2="637.106" y2="466.88" stroke="#EB6976" stroke-opacity="0.45" stroke-width="4"/>
<line x1="686.959" y1="419.385" x2="647.106" y2="466.88" stroke="#EB6976" stroke-opacity="0.45" stroke-width="4"/>
<line x1="696.959" y1="419.385" x2="657.106" y2="466.88" stroke="#EB6976" stroke-opacity="0.45" stroke-width="4"/>
<line x1="706.958" y1="419.385" x2="667.105" y2="466.88" stroke="#EB6976" stroke-opacity="0.45" stroke-width="4"/>
<line x1="716.96" y1="419.385" x2="677.107" y2="466.88" stroke="#EB6976" stroke-opacity="0.45" stroke-width="4"/>
<line x1="726.96" y1="419.385" x2="687.107" y2="466.88" stroke="#EB6976" stroke-opacity="0.45" stroke-width="4"/>
<line x1="736.96" y1="419.385" x2="697.107" y2="466.88" stroke="#EB6976" stroke-opacity="0.45" stroke-width="4"/>
<line x1="746.96" y1="419.385" x2="707.107" y2="466.88" stroke="#EB6976" stroke-opacity="0.45" stroke-width="4"/>
<line x1="756.96" y1="419.385" x2="717.107" y2="466.88" stroke="#EB6976" stroke-opacity="0.45" stroke-width="4"/>
<line x1="766.96" y1="419.385" x2="727.107" y2="466.88" stroke="#EB6976" stroke-opacity="0.45" stroke-width="4"/>
<line x1="776.96" y1="419.385" x2="737.107" y2="466.88" stroke="#EB6976" stroke-opacity="0.45" stroke-width="4"/>
<line x1="786.96" y1="419.385" x2="747.107" y2="466.88" stroke="#EB6976" stroke-opacity="0.45" stroke-width="4"/>
<line x1="797.958" y1="419.385" x2="758.105" y2="466.88" stroke="#EB6976" stroke-opacity="0.45" stroke-width="4"/>
<line x1="807.958" y1="419.385" x2="768.105" y2="466.88" stroke="#EB6976" stroke-opacity="0.45" stroke-width="4"/>
<line x1="817.958" y1="419.385" x2="778.105" y2="466.88" stroke="#EB6976" stroke-opacity="0.45" stroke-width="4"/>
<line x1="827.958" y1="419.385" x2="788.105" y2="466.88" stroke="#EB6976" stroke-opacity="0.45" stroke-width="4"/>
<line x1="837.96" y1="419.385" x2="798.107" y2="466.88" stroke="#EB6976" stroke-opacity="0.45" stroke-width="4"/>
<line x1="847.96" y1="419.385" x2="808.107" y2="466.88" stroke="#EB6976" stroke-opacity="0.45" stroke-width="4"/>
<line x1="857.958" y1="419.385" x2="818.105" y2="466.88" stroke="#EB6976" stroke-opacity="0.45" stroke-width="4"/>
<line x1="867.96" y1="419.385" x2="828.107" y2="466.88" stroke="#EB6976" stroke-opacity="0.45" stroke-width="4"/>
<line x1="877.96" y1="419.385" x2="838.107" y2="466.88" stroke="#EB6976" stroke-opacity="0.45" stroke-width="4"/>
<line x1="887.96" y1="419.385" x2="848.107" y2="466.88" stroke="#EB6976" stroke-opacity="0.45" stroke-width="4"/>
<line x1="897.96" y1="419.385" x2="858.107" y2="466.88" stroke="#EB6976" stroke-opacity="0.45" stroke-width="4"/>
<line x1="907.96" y1="419.385" x2="868.107" y2="466.88" stroke="#EB6976" stroke-opacity="0.45" stroke-width="4"/>
<line x1="917.96" y1="419.385" x2="878.107" y2="466.88" stroke="#EB6976" stroke-opacity="0.45" stroke-width="4"/>
<line x1="927.96" y1="419.385" x2="888.107" y2="466.88" stroke="#EB6976" stroke-opacity="0.45" stroke-width="4"/>
<line x1="937.96" y1="419.385" x2="898.107" y2="466.88" stroke="#EB6976" stroke-opacity="0.45" stroke-width="4"/>
<line x1="947.96" y1="419.385" x2="908.107" y2="466.88" stroke="#EB6976" stroke-opacity="0.45" stroke-width="4"/>
<line x1="957.96" y1="419.385" x2="918.107" y2="466.88" stroke="#EB6976" stroke-opacity="0.45" stroke-width="4"/>
<line x1="967.959" y1="419.385" x2="928.107" y2="466.88" stroke="#EB6976" stroke-opacity="0.45" stroke-width="4"/>
<line x1="977.959" y1="419.385" x2="938.107" y2="466.88" stroke="#EB6976" stroke-opacity="0.45" stroke-width="4"/>
<line x1="987.959" y1="419.385" x2="948.107" y2="466.88" stroke="#EB6976" stroke-opacity="0.45" stroke-width="4"/>
</g>
<path d="M306 438H305.5V438.207L305.646 438.354L306 438ZM314 446L313.646 446.354L313.793 446.5H314V446ZM357.354 446.354C357.549 446.158 357.549 445.842 357.354 445.646L354.172 442.464C353.976 442.269 353.66 442.269 353.464 442.464C353.269 442.66 353.269 442.976 353.464 443.172L356.293 446L353.464 448.828C353.269 449.024 353.269 449.34 353.464 449.536C353.66 449.731 353.976 449.731 354.172 449.536L357.354 446.354ZM305.5 306V438H306.5V306H305.5ZM305.646 438.354L313.646 446.354L314.354 445.646L306.354 437.646L305.646 438.354ZM314 446.5H357V445.5H314V446.5Z" fill="#BF503B" fill-opacity="0.6"/>
<path d="M418 518H417.5V518.207L417.646 518.354L418 518ZM426 526L425.646 526.354L425.793 526.5H426V526ZM477.354 526.354C477.549 526.158 477.549 525.842 477.354 525.646L474.172 522.464C473.976 522.269 473.66 522.269 473.464 522.464C473.269 522.66 473.269 522.976 473.464 523.172L476.293 526L473.464 528.828C473.269 529.024 473.269 529.34 473.464 529.536C473.66 529.731 473.976 529.731 474.172 529.536L477.354 526.354ZM417.5 466V518H418.5V466H417.5ZM417.646 518.354L425.646 526.354L426.354 525.646L418.354 517.646L417.646 518.354ZM426 526.5H477V525.5H426V526.5Z" fill="#BF503B" fill-opacity="0.6"/>
<path d="M538 598H537.5V598.207L537.646 598.354L538 598ZM546 606L545.646 606.354L545.793 606.5H546V606ZM597.354 606.354C597.549 606.158 597.549 605.842 597.354 605.646L594.172 602.464C593.976 602.269 593.66 602.269 593.464 602.464C593.269 602.66 593.269 602.976 593.464 603.172L596.293 606L593.464 608.828C593.269 609.024 593.269 609.34 593.464 609.536C593.66 609.731 593.976 609.731 594.172 609.536L597.354 606.354ZM537.5 546V598H538.5V546H537.5ZM537.646 598.354L545.646 606.354L546.354 605.646L538.354 597.646L537.646 598.354ZM546 606.5H597V605.5H546V606.5Z" fill="#BF503B" fill-opacity="0.6"/>
<rect x="956" y="430" width="4" height="25" fill="white"/>
<mask id="mask7_565_126" style="mask-type:alpha" maskUnits="userSpaceOnUse" x="537" y="457" width="18" height="5">
<rect x="537" y="457" width="18" height="5" fill="#D9D9D9"/>
</mask>
<g mask="url(#mask7_565_126)">
<line x1="546.194" y1="454.643" x2="538.48" y2="463.835" stroke="#BF674E" stroke-width="2"/>
<line x1="550.194" y1="454.643" x2="542.48" y2="463.835" stroke="#BF674E" stroke-width="2"/>
<line x1="554.194" y1="454.643" x2="546.48" y2="463.835" stroke="#BF674E" stroke-width="2"/>
</g>
<rect x="146" y="110" width="90" height="1" fill="#FEFDBA" fill-opacity="0.16"/>
<rect x="146" y="133" width="90" height="1" fill="#FEFDBA" fill-opacity="0.16"/>
<g filter="url(#filter2_dddddd_565_126)">
<rect x="148" y="113" width="2" height="18" fill="#FEFDBA"/>
</g>
<rect x="2" y="111" width="4" height="4" fill="#BF674E" fill-opacity="0.5"/>
<rect x="8" y="111" width="4" height="4" fill="#BF674E" fill-opacity="0.3"/>
<rect x="14" y="111" width="4" height="4" fill="#BF674E" fill-opacity="0.15"/>
<path d="M481 510H593V534L589 538L585 542H481V510Z" fill="#FDF0F1"/>
<path d="M497.536 530.164V522.568C497.536 522.352 497.5 522.214 497.428 522.154C497.356 522.082 497.212 522.046 496.996 522.046H496.024C495.808 522.046 495.664 522.082 495.592 522.154C495.532 522.214 495.502 522.352 495.502 522.568V530.164C495.502 530.38 495.532 530.524 495.592 530.596C495.664 530.656 495.808 530.686 496.024 530.686H496.996C497.212 530.686 497.356 530.656 497.428 530.596C497.5 530.524 497.536 530.38 497.536 530.164ZM499.174 522.316V530.416C499.174 531.472 498.616 532 497.5 532H495.538C494.41 532 493.846 531.472 493.846 530.416V522.316C493.846 521.26 494.41 520.732 495.538 520.732H497.5C498.616 520.732 499.174 521.26 499.174 522.316ZM503.92 525.52H505.9C507.016 525.52 507.574 526.054 507.574 527.122V530.416C507.574 531.472 507.016 532 505.9 532H503.992C502.864 532 502.3 531.472 502.3 530.416V522.316C502.3 521.26 502.864 520.732 503.992 520.732H505.846C506.962 520.732 507.52 521.26 507.52 522.316V524.26H505.918V522.568C505.918 522.352 505.882 522.214 505.81 522.154C505.738 522.082 505.594 522.046 505.378 522.046H504.46C504.244 522.046 504.1 522.082 504.028 522.154C503.956 522.214 503.92 522.352 503.92 522.568V525.52ZM505.954 530.164V527.338C505.954 527.134 505.918 526.996 505.846 526.924C505.774 526.852 505.63 526.816 505.414 526.816H503.92V530.164C503.92 530.38 503.956 530.524 504.028 530.596C504.1 530.656 504.244 530.686 504.46 530.686H505.414C505.63 530.686 505.774 530.656 505.846 530.596C505.918 530.524 505.954 530.38 505.954 530.164Z" fill="#120505" fill-opacity="0.6"/>
<path d="M522.952 520.732H524.59L522.79 532H520.54L519.28 523.54L518.038 532H515.788L513.988 520.732H515.662L516.922 530.524L518.38 520.732H520.18L521.638 530.524L522.952 520.732ZM528.791 530.686H532.049V532H527.153V520.732H531.923V522.046H528.791V525.52H531.383V526.834H528.791V530.686ZM538.723 525.106V522.532C538.723 522.316 538.687 522.178 538.615 522.118C538.543 522.046 538.399 522.01 538.183 522.01H536.383V525.628H538.183C538.399 525.628 538.543 525.598 538.615 525.538C538.687 525.466 538.723 525.322 538.723 525.106ZM538.723 530.2V527.428C538.723 527.212 538.687 527.074 538.615 527.014C538.543 526.942 538.399 526.906 538.183 526.906H536.383V530.722H538.183C538.399 530.722 538.543 530.692 538.615 530.632C538.687 530.56 538.723 530.416 538.723 530.2ZM534.763 520.732H538.669C539.797 520.732 540.361 521.26 540.361 522.316V525.178C540.361 525.814 540.121 526.186 539.641 526.294C540.121 526.414 540.361 526.762 540.361 527.338V530.416C540.361 531.472 539.797 532 538.669 532H534.763V520.732ZM546.808 530.164V527.41C546.808 527.194 546.772 527.056 546.7 526.996C546.64 526.924 546.502 526.888 546.286 526.888H544.954C543.862 526.888 543.316 526.354 543.316 525.286V522.316C543.316 521.26 543.874 520.732 544.99 520.732H546.754C547.87 520.732 548.428 521.26 548.428 522.316V523.972H546.79V522.568C546.79 522.352 546.754 522.214 546.682 522.154C546.61 522.082 546.466 522.046 546.25 522.046H545.494C545.278 522.046 545.134 522.082 545.062 522.154C544.99 522.214 544.954 522.352 544.954 522.568V525.07C544.954 525.286 544.99 525.43 545.062 525.502C545.134 525.562 545.278 525.592 545.494 525.592H546.808C547.912 525.592 548.464 526.12 548.464 527.176V530.416C548.464 531.472 547.9 532 546.772 532H545.026C543.91 532 543.352 531.472 543.352 530.416V528.76H544.99V530.164C544.99 530.38 545.026 530.524 545.098 530.596C545.17 530.656 545.314 530.686 545.53 530.686H546.286C546.502 530.686 546.64 530.656 546.7 530.596C546.772 530.524 546.808 530.38 546.808 530.164ZM551.656 520.732H553.276V532H551.656V520.732ZM561.285 520.732V522.046H559.395V532H557.775V522.046H555.885V520.732H561.285ZM565.382 530.686H568.64V532H563.744V520.732H568.514V522.046H565.382V525.52H567.974V526.834H565.382V530.686Z" fill="#120505"/>
<rect x="482" y="511" width="4" height="4" fill="#BF674E" fill-opacity="0.5"/>
<rect x="488" y="511" width="4" height="4" fill="#BF674E" fill-opacity="0.3"/>
<rect x="494" y="511" width="4" height="4" fill="#BF674E" fill-opacity="0.15"/>
<path d="M601 590H724V614L720 618L716 622H601V590Z" fill="#FDF0F1"/>
<path d="M617.536 610.164V602.568C617.536 602.352 617.5 602.214 617.428 602.154C617.356 602.082 617.212 602.046 616.996 602.046H616.024C615.808 602.046 615.664 602.082 615.592 602.154C615.532 602.214 615.502 602.352 615.502 602.568V610.164C615.502 610.38 615.532 610.524 615.592 610.596C615.664 610.656 615.808 610.686 616.024 610.686H616.996C617.212 610.686 617.356 610.656 617.428 610.596C617.5 610.524 617.536 610.38 617.536 610.164ZM619.174 602.316V610.416C619.174 611.472 618.616 612 617.5 612H615.538C614.41 612 613.846 611.472 613.846 610.416V602.316C613.846 601.26 614.41 600.732 615.538 600.732H617.5C618.616 600.732 619.174 601.26 619.174 602.316ZM626.602 600.732V601.74L623.578 612H621.922L624.856 602.082H621.562V600.732H626.602Z" fill="#120505" fill-opacity="0.6"/>
<path d="M633.11 600.732H636.8C637.916 600.732 638.474 601.26 638.474 602.316V606.06C638.474 607.116 637.916 607.644 636.8 607.644H634.73V612H633.11V600.732ZM636.854 605.808V602.568C636.854 602.352 636.818 602.214 636.746 602.154C636.674 602.082 636.53 602.046 636.314 602.046H634.73V606.348H636.314C636.53 606.348 636.674 606.312 636.746 606.24C636.818 606.168 636.854 606.024 636.854 605.808ZM645.366 600.732H646.986V612H645.366V607.05H642.972V612H641.352V600.732H642.972V605.736H645.366V600.732ZM653.484 612H651.846V608.436L649.434 600.732H651.09L652.656 606.942L654.132 600.732H655.788L653.484 608.436V612ZM661.482 610.164V607.41C661.482 607.194 661.446 607.056 661.374 606.996C661.314 606.924 661.176 606.888 660.96 606.888H659.628C658.536 606.888 657.99 606.354 657.99 605.286V602.316C657.99 601.26 658.548 600.732 659.664 600.732H661.428C662.544 600.732 663.102 601.26 663.102 602.316V603.972H661.464V602.568C661.464 602.352 661.428 602.214 661.356 602.154C661.284 602.082 661.14 602.046 660.924 602.046H660.168C659.952 602.046 659.808 602.082 659.736 602.154C659.664 602.214 659.628 602.352 659.628 602.568V605.07C659.628 605.286 659.664 605.43 659.736 605.502C659.808 605.562 659.952 605.592 660.168 605.592H661.482C662.586 605.592 663.138 606.12 663.138 607.176V610.416C663.138 611.472 662.574 612 661.446 612H659.7C658.584 612 658.026 611.472 658.026 610.416V608.76H659.664V610.164C659.664 610.38 659.7 610.524 659.772 610.596C659.844 610.656 659.988 610.686 660.204 610.686H660.96C661.176 610.686 661.314 610.656 661.374 610.596C661.446 610.524 661.482 610.38 661.482 610.164ZM666.33 600.732H667.95V612H666.33V600.732ZM676.589 604.26H674.933V602.532C674.933 602.316 674.897 602.178 674.825 602.118C674.765 602.046 674.627 602.01 674.411 602.01H673.493C673.277 602.01 673.133 602.046 673.061 602.118C672.989 602.178 672.953 602.316 672.953 602.532V610.218C672.953 610.434 672.989 610.578 673.061 610.65C673.133 610.71 673.277 610.74 673.493 610.74H674.411C674.627 610.74 674.765 610.71 674.825 610.65C674.897 610.578 674.933 610.434 674.933 610.218V608.508H676.589V610.416C676.589 611.484 676.025 612.018 674.897 612.018H672.989C671.873 612.018 671.315 611.484 671.315 610.416V602.316C671.315 601.26 671.873 600.732 672.989 600.732H674.897C676.025 600.732 676.589 601.26 676.589 602.316V604.26ZM683.77 612L683.32 609.39H680.944L680.53 612H678.91L680.908 600.732H683.266L685.408 612H683.77ZM681.142 608.076H683.104L682.078 602.136L681.142 608.076ZM689.616 610.686H692.406V612H687.996V600.732H689.616V610.686ZM698.09 610.164V607.41C698.09 607.194 698.054 607.056 697.982 606.996C697.922 606.924 697.784 606.888 697.568 606.888H696.236C695.144 606.888 694.598 606.354 694.598 605.286V602.316C694.598 601.26 695.156 600.732 696.272 600.732H698.036C699.152 600.732 699.71 601.26 699.71 602.316V603.972H698.072V602.568C698.072 602.352 698.036 602.214 697.964 602.154C697.892 602.082 697.748 602.046 697.532 602.046H696.776C696.56 602.046 696.416 602.082 696.344 602.154C696.272 602.214 696.236 602.352 696.236 602.568V605.07C696.236 605.286 696.272 605.43 696.344 605.502C696.416 605.562 696.56 605.592 696.776 605.592H698.09C699.194 605.592 699.746 606.12 699.746 607.176V610.416C699.746 611.472 699.182 612 698.054 612H696.308C695.192 612 694.634 611.472 694.634 610.416V608.76H696.272V610.164C696.272 610.38 696.308 610.524 696.38 610.596C696.452 610.656 696.596 610.686 696.812 610.686H697.568C697.784 610.686 697.922 610.656 697.982 610.596C698.054 610.524 698.09 610.38 698.09 610.164Z" fill="#120505"/>
<rect x="602" y="591" width="4" height="4" fill="#BF674E" fill-opacity="0.5"/>
<rect x="608" y="591" width="4" height="4" fill="#BF674E" fill-opacity="0.3"/>
<rect x="614" y="591" width="4" height="4" fill="#BF674E" fill-opacity="0.15"/>
<rect x="71.5" y="146" width="1" height="8" fill="#BF674E"/>
<rect x="164.5" y="226" width="1" height="8" fill="#BF674E"/>
<rect x="305.5" y="306" width="1" height="8" fill="#BF674E"/>
<rect x="417.5" y="466" width="1" height="8" fill="#BF674E"/>
<rect x="537.5" y="546" width="1" height="8" fill="#BF674E"/>
<defs>
<filter id="filter0_b_565_126" x="116" y="185" width="96" height="42" filterUnits="userSpaceOnUse" color-interpolation-filters="sRGB">
<feFlood flood-opacity="0" result="BackgroundImageFix"/>
<feGaussianBlur in="BackgroundImageFix" stdDeviation="2.5"/>
<feComposite in2="SourceAlpha" operator="in" result="effect1_backgroundBlur_565_126"/>
<feBlend mode="normal" in="SourceGraphic" in2="effect1_backgroundBlur_565_126" result="shape"/>
</filter>
<filter id="filter1_b_565_126" x="137" y="102" width="108" height="40" filterUnits="userSpaceOnUse" color-interpolation-filters="sRGB">
<feFlood flood-opacity="0" result="BackgroundImageFix"/>
<feGaussianBlur in="BackgroundImageFix" stdDeviation="4"/>
<feComposite in2="SourceAlpha" operator="in" result="effect1_backgroundBlur_565_126"/>
<feBlend mode="normal" in="SourceGraphic" in2="effect1_backgroundBlur_565_126" result="shape"/>
</filter>
<filter id="filter2_dddddd_565_126" x="129.697" y="94.6969" width="38.6062" height="54.6062" filterUnits="userSpaceOnUse" color-interpolation-filters="sRGB">
<feFlood flood-opacity="0" result="BackgroundImageFix"/>
<feColorMatrix in="SourceAlpha" type="matrix" values="0 0 0 0 0 0 0 0 0 0 0 0 0 0 0 0 0 0 127 0" result="hardAlpha"/>
<feOffset/>
<feGaussianBlur stdDeviation="0.217894"/>
<feColorMatrix type="matrix" values="0 0 0 0 0.996078 0 0 0 0 0.992157 0 0 0 0 0.729412 0 0 0 1 0"/>
<feBlend mode="normal" in2="BackgroundImageFix" result="effect1_dropShadow_565_126"/>
<feColorMatrix in="SourceAlpha" type="matrix" values="0 0 0 0 0 0 0 0 0 0 0 0 0 0 0 0 0 0 127 0" result="hardAlpha"/>
<feOffset/>
<feGaussianBlur stdDeviation="0.435787"/>
<feColorMatrix type="matrix" values="0 0 0 0 0.996078 0 0 0 0 0.992157 0 0 0 0 0.729412 0 0 0 1 0"/>
<feBlend mode="normal" in2="effect1_dropShadow_565_126" result="effect2_dropShadow_565_126"/>
<feColorMatrix in="SourceAlpha" type="matrix" values="0 0 0 0 0 0 0 0 0 0 0 0 0 0 0 0 0 0 127 0" result="hardAlpha"/>
<feOffset/>
<feGaussianBlur stdDeviation="1.52526"/>
<feColorMatrix type="matrix" values="0 0 0 0 0.996078 0 0 0 0 0.992157 0 0 0 0 0.729412 0 0 0 1 0"/>
<feBlend mode="normal" in2="effect2_dropShadow_565_126" result="effect3_dropShadow_565_126"/>
<feColorMatrix in="SourceAlpha" type="matrix" values="0 0 0 0 0 0 0 0 0 0 0 0 0 0 0 0 0 0 127 0" result="hardAlpha"/>
<feOffset/>
<feGaussianBlur stdDeviation="3.05051"/>
<feColorMatrix type="matrix" values="0 0 0 0 0.996078 0 0 0 0 0.992157 0 0 0 0 0.729412 0 0 0 1 0"/>
<feBlend mode="normal" in2="effect3_dropShadow_565_126" result="effect4_dropShadow_565_126"/>
<feColorMatrix in="SourceAlpha" type="matrix" values="0 0 0 0 0 0 0 0 0 0 0 0 0 0 0 0 0 0 127 0" result="hardAlpha"/>
<feOffset/>
<feGaussianBlur stdDeviation="5.22945"/>
<feColorMatrix type="matrix" values="0 0 0 0 0.996078 0 0 0 0 0.992157 0 0 0 0 0.729412 0 0 0 1 0"/>
<feBlend mode="normal" in2="effect4_dropShadow_565_126" result="effect5_dropShadow_565_126"/>
<feColorMatrix in="SourceAlpha" type="matrix" values="0 0 0 0 0 0 0 0 0 0 0 0 0 0 0 0 0 0 127 0" result="hardAlpha"/>
<feOffset/>
<feGaussianBlur stdDeviation="9.15154"/>
<feColorMatrix type="matrix" values="0 0 0 0 0.996078 0 0 0 0 0.992157 0 0 0 0 0.729412 0 0 0 1 0"/>
<feBlend mode="normal" in2="effect5_dropShadow_565_126" result="effect6_dropShadow_565_126"/>
<feBlend mode="normal" in="SourceGraphic" in2="effect6_dropShadow_565_126" result="shape"/>
</filter>
<linearGradient id="paint0_linear_565_126" x1="0.5" y1="0" x2="0.5" y2="683" gradientUnits="userSpaceOnUse">
<stop stop-color="#EB6976"/>
<stop offset="1" stop-color="#EB6976" stop-opacity="0.59"/>
</linearGradient>
<linearGradient id="paint1_linear_565_126" x1="120.5" y1="0" x2="120.5" y2="683" gradientUnits="userSpaceOnUse">
<stop stop-color="#EB6976"/>
<stop offset="1" stop-color="#EB6976" stop-opacity="0.59"/>
</linearGradient>
<linearGradient id="paint2_linear_565_126" x1="240.5" y1="0" x2="240.5" y2="683" gradientUnits="userSpaceOnUse">
<stop stop-color="#EB6976"/>
<stop offset="1" stop-color="#EB6976" stop-opacity="0.59"/>
</linearGradient>
<linearGradient id="paint3_linear_565_126" x1="360.5" y1="0" x2="360.5" y2="683" gradientUnits="userSpaceOnUse">
<stop stop-color="#EB6976"/>
<stop offset="1" stop-color="#EB6976" stop-opacity="0.59"/>
</linearGradient>
<linearGradient id="paint4_linear_565_126" x1="480.5" y1="0" x2="480.5" y2="683" gradientUnits="userSpaceOnUse">
<stop stop-color="#EB6976"/>
<stop offset="1" stop-color="#EB6976" stop-opacity="0.59"/>
</linearGradient>
<linearGradient id="paint5_linear_565_126" x1="600.5" y1="0" x2="600.5" y2="683" gradientUnits="userSpaceOnUse">
<stop stop-color="#EB6976"/>
<stop offset="1" stop-color="#EB6976" stop-opacity="0.59"/>
</linearGradient>
<linearGradient id="paint6_linear_565_126" x1="720.5" y1="0" x2="720.5" y2="683" gradientUnits="userSpaceOnUse">
<stop stop-color="#EB6976"/>
<stop offset="1" stop-color="#EB6976" stop-opacity="0.59"/>
</linearGradient>
<linearGradient id="paint7_linear_565_126" x1="840.5" y1="0" x2="840.5" y2="683" gradientUnits="userSpaceOnUse">
<stop stop-color="#EB6976"/>
<stop offset="1" stop-color="#EB6976" stop-opacity="0.59"/>
</linearGradient>
<linearGradient id="paint8_linear_565_126" x1="960.5" y1="0" x2="960.5" y2="683" gradientUnits="userSpaceOnUse">
<stop stop-color="#EB6976"/>
<stop offset="1" stop-color="#EB6976" stop-opacity="0.59"/>
</linearGradient>
</defs>
</svg>
