<svg width="680" height="341" viewBox="0 0 680 341" fill="none" xmlns="http://www.w3.org/2000/svg">
<g filter="url(#filter0_b_579_20)">
<rect y="1" width="680" height="340" fill="#EB6976" fill-opacity="0.08"/>
</g>
<line y1="255.5" x2="680" y2="255.5" stroke="#EB6976" stroke-opacity="0.08"/>
<line y1="85.5" x2="680" y2="85.5" stroke="#EB6976" stroke-opacity="0.08"/>
<line y1="170.5" x2="680" y2="170.5" stroke="#EB6976" stroke-opacity="0.08"/>
<line x1="340.5" y1="1" x2="340.5" y2="340" stroke="#EB6976" stroke-opacity="0.08"/>
<line x1="425.5" y1="1" x2="425.5" y2="340" stroke="#EB6976" stroke-opacity="0.08"/>
<line x1="510.5" y1="1" x2="510.5" y2="340" stroke="#EB6976" stroke-opacity="0.08"/>
<line x1="595.5" y1="1" x2="595.5" y2="340" stroke="#EB6976" stroke-opacity="0.08"/>
<line x1="170.5" y1="1" x2="170.5" y2="340" stroke="#EB6976" stroke-opacity="0.08"/>
<line x1="255.5" y1="1" x2="255.5" y2="340" stroke="#EB6976" stroke-opacity="0.08"/>
<line x1="85.5" y1="1" x2="85.5" y2="340" stroke="#EB6976" stroke-opacity="0.08"/>
<path fill-rule="evenodd" clip-rule="evenodd" d="M86 81H85V85L81 85V86H85V90H86V86H90V85L86 85V81Z" fill="#EB6976" fill-opacity="0.15"/>
<path fill-rule="evenodd" clip-rule="evenodd" d="M86 166H85V170L81 170V171H85V175H86V171H90V170L86 170V166Z" fill="#EB6976" fill-opacity="0.15"/>
<path fill-rule="evenodd" clip-rule="evenodd" d="M86 251H85V255L81 255V256H85V260H86V256H90V255L86 255V251Z" fill="#EB6976" fill-opacity="0.15"/>
<path fill-rule="evenodd" clip-rule="evenodd" d="M171 81H170V85L166 85V86H170V90H171V86H175V85L171 85V81Z" fill="#EB6976" fill-opacity="0.15"/>
<path fill-rule="evenodd" clip-rule="evenodd" d="M171 166H170V170L166 170V171H170V175H171V171H175V170L171 170V166Z" fill="#EB6976" fill-opacity="0.15"/>
<path fill-rule="evenodd" clip-rule="evenodd" d="M171 251H170V255L166 255V256H170V260H171V256H175V255L171 255V251Z" fill="#EB6976" fill-opacity="0.15"/>
<path fill-rule="evenodd" clip-rule="evenodd" d="M256 81H255V85L251 85V86H255V90H256V86H260V85L256 85V81Z" fill="#EB6976" fill-opacity="0.15"/>
<path fill-rule="evenodd" clip-rule="evenodd" d="M256 166H255V170L251 170V171H255V175H256V171H260V170L256 170V166Z" fill="#EB6976" fill-opacity="0.15"/>
<path fill-rule="evenodd" clip-rule="evenodd" d="M256 251H255V255L251 255V256H255V260H256V256H260V255L256 255V251Z" fill="#EB6976" fill-opacity="0.15"/>
<path fill-rule="evenodd" clip-rule="evenodd" d="M341 81H340V85L336 85V86H340V90H341V86H345V85L341 85V81Z" fill="#EB6976" fill-opacity="0.15"/>
<path fill-rule="evenodd" clip-rule="evenodd" d="M341 166H340V170L336 170V171H340V175H341V171H345V170L341 170V166Z" fill="#EB6976" fill-opacity="0.15"/>
<path fill-rule="evenodd" clip-rule="evenodd" d="M341 251H340V255L336 255V256H340V260H341V256H345V255L341 255V251Z" fill="#EB6976" fill-opacity="0.15"/>
<path fill-rule="evenodd" clip-rule="evenodd" d="M426 81H425V85L421 85V86H425V90H426V86H430V85L426 85V81Z" fill="#EB6976" fill-opacity="0.15"/>
<path fill-rule="evenodd" clip-rule="evenodd" d="M426 166H425V170L421 170V171H425V175H426V171H430V170L426 170V166Z" fill="#EB6976" fill-opacity="0.15"/>
<path fill-rule="evenodd" clip-rule="evenodd" d="M426 251H425V255L421 255V256H425V260H426V256H430V255L426 255V251Z" fill="#EB6976" fill-opacity="0.15"/>
<path fill-rule="evenodd" clip-rule="evenodd" d="M511 81H510V85L506 85V86H510V90H511V86H515V85L511 85V81Z" fill="#EB6976" fill-opacity="0.15"/>
<path fill-rule="evenodd" clip-rule="evenodd" d="M511 166H510V170L506 170V171H510V175H511V171H515V170L511 170V166Z" fill="#EB6976" fill-opacity="0.15"/>
<path fill-rule="evenodd" clip-rule="evenodd" d="M511 251H510V255L506 255V256H510V260H511V256H515V255L511 255V251Z" fill="#EB6976" fill-opacity="0.15"/>
<path fill-rule="evenodd" clip-rule="evenodd" d="M596 81H595V85L591 85V86H595V90H596V86H600V85L596 85V81Z" fill="#EB6976" fill-opacity="0.15"/>
<path fill-rule="evenodd" clip-rule="evenodd" d="M596 166H595V170L591 170V171H595V175H596V171H600V170L596 170V166Z" fill="#EB6976" fill-opacity="0.15"/>
<path fill-rule="evenodd" clip-rule="evenodd" d="M596 251H595V255L591 255V256H595V260H596V256H600V255L596 255V251Z" fill="#EB6976" fill-opacity="0.15"/>
<path fill-rule="evenodd" clip-rule="evenodd" d="M8 0H2H0V2V8H2L2 2H8V0Z" fill="#C25661"/>
<path fill-rule="evenodd" clip-rule="evenodd" d="M-3.49691e-07 333L-8.74228e-08 339L0 341L2 341L8 341L8 339L2 339L2 333L-3.49691e-07 333Z" fill="#C25661"/>
<path fill-rule="evenodd" clip-rule="evenodd" d="M680 8L680 2L680 0L678 -8.74228e-08L672 -3.49691e-07L672 2L678 2L678 8L680 8Z" fill="#C25661"/>
<path fill-rule="evenodd" clip-rule="evenodd" d="M672 341L678 341L680 341L680 339L680 333L678 333L678 339L672 339L672 341Z" fill="#C25661"/>
<defs>
<filter id="filter0_b_579_20" x="-10" y="-9" width="700" height="360" filterUnits="userSpaceOnUse" color-interpolation-filters="sRGB">
<feFlood flood-opacity="0" result="BackgroundImageFix"/>
<feGaussianBlur in="BackgroundImageFix" stdDeviation="5"/>
<feComposite in2="SourceAlpha" operator="in" result="effect1_backgroundBlur_579_20"/>
<feBlend mode="normal" in="SourceGraphic" in2="effect1_backgroundBlur_579_20" result="shape"/>
</filter>
</defs>
</svg>
