<svg width="190" height="115" viewBox="0 0 190 115" fill="none" xmlns="http://www.w3.org/2000/svg">
<g filter="url(#filter0_dd_544_2998)">
<rect x="4" y="1" width="182" height="106" fill="#B9FFFF"/>
<rect x="6" y="2" width="180" height="104" fill="url(#paint0_radial_544_2998)" fill-opacity="0.5"/>
<path d="M15.384 99L15.084 97.26H13.5L13.224 99H12.144L13.476 91.488H15.048L16.476 99H15.384ZM13.632 96.384H14.94L14.256 92.424L13.632 96.384ZM20.6612 91.488H21.7532V97.944C21.7532 98.648 21.3772 99 20.6252 99H19.2932C18.5412 99 18.1652 98.648 18.1652 97.944V91.488H19.2572V97.776C19.2572 97.92 19.2812 98.016 19.3292 98.064C19.3772 98.104 19.4732 98.124 19.6172 98.124H20.3012C20.4532 98.124 20.5492 98.104 20.5892 98.064C20.6372 98.016 20.6612 97.92 20.6612 97.776V91.488ZM23.9547 91.488H26.5707C27.3147 91.488 27.6867 91.84 27.6867 92.544V97.944C27.6867 98.648 27.3147 99 26.5707 99H23.9547V91.488ZM26.5947 97.8V92.688C26.5947 92.544 26.5707 92.452 26.5227 92.412C26.4747 92.364 26.3787 92.34 26.2347 92.34H25.0467V98.148H26.2347C26.3787 98.148 26.4747 98.128 26.5227 98.088C26.5707 98.04 26.5947 97.944 26.5947 97.8ZM29.932 91.488H31.012V99H29.932V91.488ZM34.3836 91.488H35.7156C36.4596 91.488 36.8316 91.84 36.8316 92.544V97.944C36.8316 98.648 36.4596 99 35.7156 99H34.3836C33.6316 99 33.2556 98.648 33.2556 97.944V92.544C33.2556 91.84 33.6316 91.488 34.3836 91.488ZM35.7516 97.776V92.712C35.7516 92.568 35.7276 92.476 35.6796 92.436C35.6316 92.388 35.5356 92.364 35.3916 92.364H34.6956C34.5516 92.364 34.4556 92.388 34.4076 92.436C34.3676 92.476 34.3476 92.568 34.3476 92.712V97.776C34.3476 97.92 34.3676 98.016 34.4076 98.064C34.4556 98.104 34.5516 98.124 34.6956 98.124H35.3916C35.5356 98.124 35.6316 98.104 35.6796 98.064C35.7276 98.016 35.7516 97.92 35.7516 97.776Z" fill="#0D7ADF" fill-opacity="0.6"/>
<rect x="12" y="83" width="4" height="1" fill="#003F96" fill-opacity="0.3"/>
<rect x="18" y="83" width="4" height="1" fill="#003F96" fill-opacity="0.3"/>
<rect x="24" y="83" width="4" height="1" fill="#003F96" fill-opacity="0.3"/>
<rect x="12" y="81" width="4" height="1" fill="#003F96" fill-opacity="0.3"/>
<rect x="18" y="81" width="4" height="1" fill="#003F96" fill-opacity="0.3"/>
<rect x="24" y="81" width="4" height="1" fill="#003F96" fill-opacity="0.3"/>
<rect x="12" y="79" width="4" height="1" fill="#003F96" fill-opacity="0.3"/>
<rect x="18" y="79" width="4" height="1" fill="#003F96" fill-opacity="0.3"/>
<rect x="24" y="79" width="4" height="1" fill="#003F96" fill-opacity="0.3"/>
<rect x="12" y="77" width="4" height="1" fill="#003F96" fill-opacity="0.3"/>
<rect x="18" y="77" width="4" height="1" fill="#003F96" fill-opacity="0.3"/>
<rect x="24" y="77" width="4" height="1" fill="#003F96" fill-opacity="0.3"/>
<rect x="12" y="75" width="4" height="1" fill="#003F96" fill-opacity="0.3"/>
<rect x="18" y="75" width="4" height="1" fill="#003F96" fill-opacity="0.3"/>
<rect x="24" y="75" width="4" height="1" fill="#003F96" fill-opacity="0.3"/>
<rect x="12" y="73" width="4" height="1" fill="#003F96" fill-opacity="0.3"/>
<rect x="18" y="73" width="4" height="1" fill="#003F96" fill-opacity="0.3"/>
<rect x="24" y="73" width="4" height="1" fill="#003F96" fill-opacity="0.3"/>
<rect x="12" y="71" width="4" height="1" fill="#003F96" fill-opacity="0.3"/>
<rect x="18" y="71" width="4" height="1" fill="#003F96" fill-opacity="0.3"/>
<rect x="24" y="71" width="4" height="1" fill="#003F96" fill-opacity="0.3"/>
<rect x="12" y="69" width="4" height="1" fill="#003F96" fill-opacity="0.3"/>
<rect x="18" y="69" width="4" height="1" fill="#003F96" fill-opacity="0.3"/>
<rect x="24" y="69" width="4" height="1" fill="#003F96" fill-opacity="0.3"/>
<rect x="12" y="67" width="4" height="1" fill="#003F96" fill-opacity="0.3"/>
<rect x="18" y="67" width="4" height="1" fill="#003F96" fill-opacity="0.3"/>
<rect x="24" y="67" width="4" height="1" fill="#003F96" fill-opacity="0.3"/>
<rect x="12" y="65" width="4" height="1" fill="#003F96" fill-opacity="0.3"/>
<rect x="18" y="65" width="4" height="1" fill="#003F96" fill-opacity="0.3"/>
<rect x="24" y="65" width="4" height="1" fill="#003F96" fill-opacity="0.3"/>
<rect x="12" y="63" width="4" height="1" fill="#003F96" fill-opacity="0.3"/>
<rect x="18" y="63" width="4" height="1" fill="#003F96" fill-opacity="0.3"/>
<rect x="24" y="63" width="4" height="1" fill="#003F96" fill-opacity="0.3"/>
<rect x="12" y="61" width="4" height="1" fill="#003F96" fill-opacity="0.3"/>
<rect x="18" y="61" width="4" height="1" fill="#003F96" fill-opacity="0.3"/>
<rect x="24" y="61" width="4" height="1" fill="#003F96" fill-opacity="0.3"/>
<rect x="30" y="83" width="4" height="1" fill="#003F96" fill-opacity="0.3"/>
<rect x="36" y="83" width="4" height="1" fill="#003F96" fill-opacity="0.3"/>
<rect x="42" y="83" width="4" height="1" fill="#003F96" fill-opacity="0.3"/>
<rect x="30" y="81" width="4" height="1" fill="#003F96" fill-opacity="0.3"/>
<rect x="36" y="81" width="4" height="1" fill="#003F96" fill-opacity="0.3"/>
<rect x="42" y="81" width="4" height="1" fill="#003F96" fill-opacity="0.3"/>
<rect x="30" y="79" width="4" height="1" fill="#003F96" fill-opacity="0.3"/>
<rect x="36" y="79" width="4" height="1" fill="#003F96" fill-opacity="0.3"/>
<rect x="42" y="79" width="4" height="1" fill="#003F96" fill-opacity="0.3"/>
<rect x="30" y="77" width="4" height="1" fill="#003F96" fill-opacity="0.3"/>
<rect x="36" y="77" width="4" height="1" fill="#003F96" fill-opacity="0.3"/>
<rect x="42" y="77" width="4" height="1" fill="#003F96" fill-opacity="0.3"/>
<rect x="30" y="75" width="4" height="1" fill="#003F96" fill-opacity="0.3"/>
<rect x="36" y="75" width="4" height="1" fill="#003F96" fill-opacity="0.3"/>
<rect x="42" y="75" width="4" height="1" fill="#003F96" fill-opacity="0.3"/>
<rect x="30" y="73" width="4" height="1" fill="#003F96" fill-opacity="0.3"/>
<rect x="36" y="73" width="4" height="1" fill="#003F96" fill-opacity="0.3"/>
<rect x="42" y="73" width="4" height="1" fill="#003F96" fill-opacity="0.3"/>
<rect x="30" y="71" width="4" height="1" fill="#003F96" fill-opacity="0.3"/>
<rect x="36" y="71" width="4" height="1" fill="#003F96" fill-opacity="0.3"/>
<rect x="42" y="71" width="4" height="1" fill="#003F96" fill-opacity="0.3"/>
<rect x="30" y="69" width="4" height="1" fill="#003F96" fill-opacity="0.3"/>
<rect x="36" y="69" width="4" height="1" fill="#003F96" fill-opacity="0.3"/>
<rect x="42" y="69" width="4" height="1" fill="#003F96" fill-opacity="0.3"/>
<rect x="30" y="67" width="4" height="1" fill="#003F96" fill-opacity="0.3"/>
<rect x="36" y="67" width="4" height="1" fill="#003F96" fill-opacity="0.3"/>
<rect x="42" y="67" width="4" height="1" fill="#003F96" fill-opacity="0.3"/>
<rect x="30" y="65" width="4" height="1" fill="#003F96" fill-opacity="0.3"/>
<rect x="36" y="65" width="4" height="1" fill="#003F96" fill-opacity="0.3"/>
<rect x="42" y="65" width="4" height="1" fill="#003F96" fill-opacity="0.3"/>
<rect x="30" y="63" width="4" height="1" fill="#003F96" fill-opacity="0.3"/>
<rect x="36" y="63" width="4" height="1" fill="#003F96" fill-opacity="0.3"/>
<rect x="42" y="63" width="4" height="1" fill="#003F96" fill-opacity="0.3"/>
<rect x="30" y="61" width="4" height="1" fill="#003F96" fill-opacity="0.3"/>
<rect x="36" y="61" width="4" height="1" fill="#003F96" fill-opacity="0.3"/>
<rect x="42" y="61" width="4" height="1" fill="#003F96" fill-opacity="0.3"/>
<rect x="48" y="83" width="4" height="1" fill="#003F96" fill-opacity="0.3"/>
<rect x="54" y="83" width="4" height="1" fill="#003F96" fill-opacity="0.3"/>
<rect x="60" y="83" width="4" height="1" fill="#003F96" fill-opacity="0.3"/>
<rect x="48" y="81" width="4" height="1" fill="#003F96" fill-opacity="0.3"/>
<rect x="54" y="81" width="4" height="1" fill="#003F96" fill-opacity="0.3"/>
<rect x="60" y="81" width="4" height="1" fill="#003F96" fill-opacity="0.3"/>
<rect x="48" y="79" width="4" height="1" fill="#003F96" fill-opacity="0.3"/>
<rect x="54" y="79" width="4" height="1" fill="#003F96" fill-opacity="0.3"/>
<rect x="60" y="79" width="4" height="1" fill="#003F96" fill-opacity="0.3"/>
<rect x="48" y="77" width="4" height="1" fill="#003F96" fill-opacity="0.3"/>
<rect x="54" y="77" width="4" height="1" fill="#003F96" fill-opacity="0.3"/>
<rect x="60" y="77" width="4" height="1" fill="#003F96" fill-opacity="0.3"/>
<rect x="48" y="75" width="4" height="1" fill="#003F96" fill-opacity="0.3"/>
<rect x="54" y="75" width="4" height="1" fill="#003F96" fill-opacity="0.3"/>
<rect x="60" y="75" width="4" height="1" fill="#003F96" fill-opacity="0.3"/>
<rect x="48" y="73" width="4" height="1" fill="#003F96" fill-opacity="0.3"/>
<rect x="54" y="73" width="4" height="1" fill="#003F96" fill-opacity="0.3"/>
<rect x="60" y="73" width="4" height="1" fill="#003F96" fill-opacity="0.3"/>
<rect x="48" y="71" width="4" height="1" fill="#003F96" fill-opacity="0.3"/>
<rect x="54" y="71" width="4" height="1" fill="#003F96" fill-opacity="0.3"/>
<rect x="60" y="71" width="4" height="1" fill="#003F96" fill-opacity="0.3"/>
<rect x="48" y="69" width="4" height="1" fill="#003F96" fill-opacity="0.3"/>
<rect x="54" y="69" width="4" height="1" fill="#003F96" fill-opacity="0.3"/>
<rect x="60" y="69" width="4" height="1" fill="#003F96" fill-opacity="0.3"/>
<rect x="48" y="67" width="4" height="1" fill="#003F96" fill-opacity="0.3"/>
<rect x="54" y="67" width="4" height="1" fill="#003F96" fill-opacity="0.3"/>
<rect x="60" y="67" width="4" height="1" fill="#003F96" fill-opacity="0.3"/>
<rect x="48" y="65" width="4" height="1" fill="#003F96" fill-opacity="0.3"/>
<rect x="54" y="65" width="4" height="1" fill="#003F96" fill-opacity="0.3"/>
<rect x="60" y="65" width="4" height="1" fill="#003F96" fill-opacity="0.3"/>
<rect x="48" y="63" width="4" height="1" fill="#003F96" fill-opacity="0.3"/>
<rect x="54" y="63" width="4" height="1" fill="#003F96" fill-opacity="0.3"/>
<rect x="60" y="63" width="4" height="1" fill="#003F96" fill-opacity="0.3"/>
<rect x="48" y="61" width="4" height="1" fill="#003F96" fill-opacity="0.3"/>
<rect x="54" y="61" width="4" height="1" fill="#003F96" fill-opacity="0.3"/>
<rect x="60" y="61" width="4" height="1" fill="#003F96" fill-opacity="0.3"/>
<rect x="66" y="83" width="4" height="1" fill="#003F96" fill-opacity="0.3"/>
<rect x="72" y="83" width="4" height="1" fill="#003F96" fill-opacity="0.3"/>
<rect x="78" y="83" width="4" height="1" fill="#003F96" fill-opacity="0.3"/>
<rect x="66" y="81" width="4" height="1" fill="#003F96" fill-opacity="0.3"/>
<rect x="72" y="81" width="4" height="1" fill="#003F96" fill-opacity="0.3"/>
<rect x="78" y="81" width="4" height="1" fill="#003F96" fill-opacity="0.3"/>
<rect x="66" y="79" width="4" height="1" fill="#003F96" fill-opacity="0.3"/>
<rect x="72" y="79" width="4" height="1" fill="#003F96" fill-opacity="0.3"/>
<rect x="78" y="79" width="4" height="1" fill="#003F96" fill-opacity="0.3"/>
<rect x="66" y="77" width="4" height="1" fill="#003F96" fill-opacity="0.3"/>
<rect x="72" y="77" width="4" height="1" fill="#003F96" fill-opacity="0.3"/>
<rect x="78" y="77" width="4" height="1" fill="#003F96" fill-opacity="0.3"/>
<rect x="66" y="75" width="4" height="1" fill="#003F96" fill-opacity="0.3"/>
<rect x="72" y="75" width="4" height="1" fill="#003F96" fill-opacity="0.3"/>
<rect x="78" y="75" width="4" height="1" fill="#003F96" fill-opacity="0.3"/>
<rect x="66" y="73" width="4" height="1" fill="#003F96" fill-opacity="0.3"/>
<rect x="72" y="73" width="4" height="1" fill="#003F96" fill-opacity="0.3"/>
<rect x="78" y="73" width="4" height="1" fill="#003F96" fill-opacity="0.3"/>
<rect x="66" y="71" width="4" height="1" fill="#003F96" fill-opacity="0.3"/>
<rect x="72" y="71" width="4" height="1" fill="#003F96" fill-opacity="0.3"/>
<rect x="78" y="71" width="4" height="1" fill="#003F96" fill-opacity="0.3"/>
<rect x="66" y="69" width="4" height="1" fill="#003F96" fill-opacity="0.3"/>
<rect x="72" y="69" width="4" height="1" fill="#003F96" fill-opacity="0.3"/>
<rect x="78" y="69" width="4" height="1" fill="#003F96" fill-opacity="0.3"/>
<rect x="66" y="67" width="4" height="1" fill="#003F96" fill-opacity="0.3"/>
<rect x="72" y="67" width="4" height="1" fill="#003F96" fill-opacity="0.3"/>
<rect x="78" y="67" width="4" height="1" fill="#003F96" fill-opacity="0.3"/>
<rect x="66" y="65" width="4" height="1" fill="#003F96" fill-opacity="0.3"/>
<rect x="72" y="65" width="4" height="1" fill="#003F96" fill-opacity="0.3"/>
<rect x="78" y="65" width="4" height="1" fill="#003F96" fill-opacity="0.3"/>
<rect x="66" y="63" width="4" height="1" fill="#003F96" fill-opacity="0.3"/>
<rect x="72" y="63" width="4" height="1" fill="#003F96" fill-opacity="0.3"/>
<rect x="78" y="63" width="4" height="1" fill="#003F96" fill-opacity="0.3"/>
<rect x="66" y="61" width="4" height="1" fill="#003F96" fill-opacity="0.3"/>
<rect x="72" y="61" width="4" height="1" fill="#003F96" fill-opacity="0.3"/>
<rect x="78" y="61" width="4" height="1" fill="#003F96" fill-opacity="0.3"/>
<rect x="84" y="83" width="4" height="1" fill="#003F96" fill-opacity="0.3"/>
<rect x="90" y="83" width="4" height="1" fill="#003F96" fill-opacity="0.3"/>
<rect x="96" y="83" width="4" height="1" fill="#003F96" fill-opacity="0.3"/>
<rect x="84" y="81" width="4" height="1" fill="#003F96" fill-opacity="0.3"/>
<rect x="90" y="81" width="4" height="1" fill="#003F96" fill-opacity="0.3"/>
<rect x="96" y="81" width="4" height="1" fill="#003F96" fill-opacity="0.3"/>
<rect x="84" y="79" width="4" height="1" fill="#003F96" fill-opacity="0.3"/>
<rect x="90" y="79" width="4" height="1" fill="#003F96" fill-opacity="0.3"/>
<rect x="96" y="79" width="4" height="1" fill="#003F96" fill-opacity="0.3"/>
<rect x="84" y="77" width="4" height="1" fill="#003F96" fill-opacity="0.3"/>
<rect x="90" y="77" width="4" height="1" fill="#003F96" fill-opacity="0.3"/>
<rect x="96" y="77" width="4" height="1" fill="#003F96" fill-opacity="0.3"/>
<rect x="84" y="75" width="4" height="1" fill="#003F96" fill-opacity="0.3"/>
<rect x="90" y="75" width="4" height="1" fill="#003F96" fill-opacity="0.3"/>
<rect x="96" y="75" width="4" height="1" fill="#003F96" fill-opacity="0.3"/>
<rect x="84" y="73" width="4" height="1" fill="#003F96" fill-opacity="0.3"/>
<rect x="90" y="73" width="4" height="1" fill="#003F96" fill-opacity="0.3"/>
<rect x="96" y="73" width="4" height="1" fill="#003F96" fill-opacity="0.3"/>
<rect x="84" y="71" width="4" height="1" fill="#003F96" fill-opacity="0.3"/>
<rect x="90" y="71" width="4" height="1" fill="#003F96" fill-opacity="0.3"/>
<rect x="96" y="71" width="4" height="1" fill="#003F96" fill-opacity="0.3"/>
<rect x="84" y="69" width="4" height="1" fill="#003F96" fill-opacity="0.3"/>
<rect x="90" y="69" width="4" height="1" fill="#003F96" fill-opacity="0.3"/>
<rect x="96" y="69" width="4" height="1" fill="#003F96" fill-opacity="0.3"/>
<rect x="84" y="67" width="4" height="1" fill="#003F96" fill-opacity="0.3"/>
<rect x="90" y="67" width="4" height="1" fill="#003F96" fill-opacity="0.3"/>
<rect x="96" y="67" width="4" height="1" fill="#003F96" fill-opacity="0.3"/>
<rect x="84" y="65" width="4" height="1" fill="#003F96" fill-opacity="0.3"/>
<rect x="90" y="65" width="4" height="1" fill="#003F96" fill-opacity="0.3"/>
<rect x="96" y="65" width="4" height="1" fill="#003F96" fill-opacity="0.3"/>
<rect x="84" y="63" width="4" height="1" fill="#003F96" fill-opacity="0.3"/>
<rect x="90" y="63" width="4" height="1" fill="#003F96" fill-opacity="0.3"/>
<rect x="96" y="63" width="4" height="1" fill="#003F96" fill-opacity="0.3"/>
<rect x="84" y="61" width="4" height="1" fill="#003F96" fill-opacity="0.3"/>
<rect x="90" y="61" width="4" height="1" fill="#003F96" fill-opacity="0.3"/>
<rect x="96" y="61" width="4" height="1" fill="#003F96" fill-opacity="0.3"/>
<rect x="102" y="83" width="4" height="1" fill="#003F96" fill-opacity="0.3"/>
<rect x="108" y="83" width="4" height="1" fill="#003F96" fill-opacity="0.3"/>
<rect x="114" y="83" width="4" height="1" fill="#003F96" fill-opacity="0.3"/>
<rect x="102" y="81" width="4" height="1" fill="#003F96" fill-opacity="0.3"/>
<rect x="108" y="81" width="4" height="1" fill="#003F96" fill-opacity="0.3"/>
<rect x="114" y="81" width="4" height="1" fill="#003F96" fill-opacity="0.3"/>
<rect x="102" y="79" width="4" height="1" fill="#003F96" fill-opacity="0.3"/>
<rect x="108" y="79" width="4" height="1" fill="#003F96" fill-opacity="0.3"/>
<rect x="114" y="79" width="4" height="1" fill="#003F96" fill-opacity="0.3"/>
<rect x="102" y="77" width="4" height="1" fill="#003F96" fill-opacity="0.3"/>
<rect x="108" y="77" width="4" height="1" fill="#003F96" fill-opacity="0.3"/>
<rect x="114" y="77" width="4" height="1" fill="#003F96" fill-opacity="0.3"/>
<rect x="102" y="75" width="4" height="1" fill="#003F96" fill-opacity="0.3"/>
<rect x="108" y="75" width="4" height="1" fill="#003F96" fill-opacity="0.3"/>
<rect x="114" y="75" width="4" height="1" fill="#003F96" fill-opacity="0.3"/>
<rect x="102" y="73" width="4" height="1" fill="#003F96" fill-opacity="0.3"/>
<rect x="108" y="73" width="4" height="1" fill="#003F96" fill-opacity="0.3"/>
<rect x="114" y="73" width="4" height="1" fill="#003F96" fill-opacity="0.3"/>
<rect x="102" y="71" width="4" height="1" fill="#003F96" fill-opacity="0.3"/>
<rect x="108" y="71" width="4" height="1" fill="#003F96" fill-opacity="0.3"/>
<rect x="114" y="71" width="4" height="1" fill="#003F96" fill-opacity="0.3"/>
<rect x="102" y="69" width="4" height="1" fill="#003F96" fill-opacity="0.3"/>
<rect x="108" y="69" width="4" height="1" fill="#003F96" fill-opacity="0.3"/>
<rect x="114" y="69" width="4" height="1" fill="#003F96" fill-opacity="0.3"/>
<rect x="102" y="67" width="4" height="1" fill="#003F96" fill-opacity="0.3"/>
<rect x="108" y="67" width="4" height="1" fill="#003F96" fill-opacity="0.3"/>
<rect x="114" y="67" width="4" height="1" fill="#003F96" fill-opacity="0.3"/>
<rect x="102" y="65" width="4" height="1" fill="#003F96" fill-opacity="0.3"/>
<rect x="108" y="65" width="4" height="1" fill="#003F96" fill-opacity="0.3"/>
<rect x="114" y="65" width="4" height="1" fill="#003F96" fill-opacity="0.3"/>
<rect x="102" y="63" width="4" height="1" fill="#003F96" fill-opacity="0.3"/>
<rect x="108" y="63" width="4" height="1" fill="#003F96" fill-opacity="0.3"/>
<rect x="114" y="63" width="4" height="1" fill="#003F96" fill-opacity="0.3"/>
<rect x="102" y="61" width="4" height="1" fill="#003F96" fill-opacity="0.3"/>
<rect x="108" y="61" width="4" height="1" fill="#003F96" fill-opacity="0.3"/>
<rect x="114" y="61" width="4" height="1" fill="#003F96" fill-opacity="0.3"/>
<rect x="120" y="83" width="4" height="1" fill="#003F96" fill-opacity="0.3"/>
<rect x="126" y="83" width="4" height="1" fill="#003F96" fill-opacity="0.3"/>
<rect x="132" y="83" width="4" height="1" fill="#003F96" fill-opacity="0.3"/>
<rect x="120" y="81" width="4" height="1" fill="#003F96" fill-opacity="0.3"/>
<rect x="126" y="81" width="4" height="1" fill="#003F96" fill-opacity="0.3"/>
<rect x="132" y="81" width="4" height="1" fill="#003F96" fill-opacity="0.3"/>
<rect x="120" y="79" width="4" height="1" fill="#003F96" fill-opacity="0.3"/>
<rect x="126" y="79" width="4" height="1" fill="#003F96" fill-opacity="0.3"/>
<rect x="132" y="79" width="4" height="1" fill="#003F96" fill-opacity="0.3"/>
<rect x="120" y="77" width="4" height="1" fill="#003F96" fill-opacity="0.3"/>
<rect x="126" y="77" width="4" height="1" fill="#003F96" fill-opacity="0.3"/>
<rect x="132" y="77" width="4" height="1" fill="#003F96" fill-opacity="0.3"/>
<rect x="120" y="75" width="4" height="1" fill="#003F96" fill-opacity="0.3"/>
<rect x="126" y="75" width="4" height="1" fill="#003F96" fill-opacity="0.3"/>
<rect x="132" y="75" width="4" height="1" fill="#003F96" fill-opacity="0.3"/>
<rect x="120" y="73" width="4" height="1" fill="#003F96" fill-opacity="0.3"/>
<rect x="126" y="73" width="4" height="1" fill="#003F96" fill-opacity="0.3"/>
<rect x="132" y="73" width="4" height="1" fill="#003F96" fill-opacity="0.3"/>
<rect x="120" y="71" width="4" height="1" fill="#003F96" fill-opacity="0.3"/>
<rect x="126" y="71" width="4" height="1" fill="#003F96" fill-opacity="0.3"/>
<rect x="132" y="71" width="4" height="1" fill="#003F96" fill-opacity="0.3"/>
<rect x="120" y="69" width="4" height="1" fill="#003F96" fill-opacity="0.3"/>
<rect x="126" y="69" width="4" height="1" fill="#003F96" fill-opacity="0.3"/>
<rect x="132" y="69" width="4" height="1" fill="#003F96" fill-opacity="0.3"/>
<rect x="120" y="67" width="4" height="1" fill="#003F96" fill-opacity="0.3"/>
<rect x="126" y="67" width="4" height="1" fill="#003F96" fill-opacity="0.3"/>
<rect x="132" y="67" width="4" height="1" fill="#003F96" fill-opacity="0.3"/>
<rect x="120" y="65" width="4" height="1" fill="#003F96" fill-opacity="0.3"/>
<rect x="126" y="65" width="4" height="1" fill="#003F96" fill-opacity="0.3"/>
<rect x="132" y="65" width="4" height="1" fill="#003F96" fill-opacity="0.3"/>
<rect x="120" y="63" width="4" height="1" fill="#003F96" fill-opacity="0.3"/>
<rect x="126" y="63" width="4" height="1" fill="#003F96" fill-opacity="0.3"/>
<rect x="132" y="63" width="4" height="1" fill="#003F96" fill-opacity="0.3"/>
<rect x="120" y="61" width="4" height="1" fill="#003F96" fill-opacity="0.3"/>
<rect x="126" y="61" width="4" height="1" fill="#003F96" fill-opacity="0.3"/>
<rect x="132" y="61" width="4" height="1" fill="#003F96" fill-opacity="0.3"/>
<rect x="138" y="83" width="4" height="1" fill="#003F96" fill-opacity="0.3"/>
<rect x="144" y="83" width="4" height="1" fill="#003F96" fill-opacity="0.3"/>
<rect x="150" y="83" width="4" height="1" fill="#003F96" fill-opacity="0.3"/>
<rect x="138" y="81" width="4" height="1" fill="#003F96" fill-opacity="0.3"/>
<rect x="144" y="81" width="4" height="1" fill="#003F96" fill-opacity="0.3"/>
<rect x="150" y="81" width="4" height="1" fill="#003F96" fill-opacity="0.3"/>
<rect x="138" y="79" width="4" height="1" fill="#003F96" fill-opacity="0.3"/>
<rect x="144" y="79" width="4" height="1" fill="#003F96" fill-opacity="0.3"/>
<rect x="150" y="79" width="4" height="1" fill="#003F96" fill-opacity="0.3"/>
<rect x="138" y="77" width="4" height="1" fill="#003F96" fill-opacity="0.3"/>
<rect x="144" y="77" width="4" height="1" fill="#003F96" fill-opacity="0.3"/>
<rect x="150" y="77" width="4" height="1" fill="#003F96" fill-opacity="0.3"/>
<rect x="138" y="75" width="4" height="1" fill="#003F96" fill-opacity="0.3"/>
<rect x="144" y="75" width="4" height="1" fill="#003F96" fill-opacity="0.3"/>
<rect x="150" y="75" width="4" height="1" fill="#003F96" fill-opacity="0.3"/>
<rect x="138" y="73" width="4" height="1" fill="#003F96" fill-opacity="0.3"/>
<rect x="144" y="73" width="4" height="1" fill="#003F96" fill-opacity="0.3"/>
<rect x="150" y="73" width="4" height="1" fill="#003F96" fill-opacity="0.3"/>
<rect x="138" y="71" width="4" height="1" fill="#003F96" fill-opacity="0.3"/>
<rect x="144" y="71" width="4" height="1" fill="#003F96" fill-opacity="0.3"/>
<rect x="150" y="71" width="4" height="1" fill="#003F96" fill-opacity="0.3"/>
<rect x="138" y="69" width="4" height="1" fill="#003F96" fill-opacity="0.3"/>
<rect x="144" y="69" width="4" height="1" fill="#003F96" fill-opacity="0.3"/>
<rect x="150" y="69" width="4" height="1" fill="#003F96" fill-opacity="0.3"/>
<rect x="138" y="67" width="4" height="1" fill="#003F96" fill-opacity="0.3"/>
<rect x="144" y="67" width="4" height="1" fill="#003F96" fill-opacity="0.3"/>
<rect x="150" y="67" width="4" height="1" fill="#003F96" fill-opacity="0.3"/>
<rect x="138" y="65" width="4" height="1" fill="#003F96" fill-opacity="0.3"/>
<rect x="144" y="65" width="4" height="1" fill="#003F96" fill-opacity="0.3"/>
<rect x="150" y="65" width="4" height="1" fill="#003F96" fill-opacity="0.3"/>
<rect x="138" y="63" width="4" height="1" fill="#003F96" fill-opacity="0.3"/>
<rect x="144" y="63" width="4" height="1" fill="#003F96" fill-opacity="0.3"/>
<rect x="150" y="63" width="4" height="1" fill="#003F96" fill-opacity="0.3"/>
<rect x="138" y="61" width="4" height="1" fill="#003F96" fill-opacity="0.3"/>
<rect x="144" y="61" width="4" height="1" fill="#003F96" fill-opacity="0.3"/>
<rect x="150" y="61" width="4" height="1" fill="#003F96" fill-opacity="0.3"/>
<rect x="156" y="83" width="4" height="1" fill="#003F96" fill-opacity="0.3"/>
<rect x="162" y="83" width="4" height="1" fill="#003F96" fill-opacity="0.3"/>
<rect x="168" y="83" width="4" height="1" fill="#003F96" fill-opacity="0.3"/>
<rect x="156" y="81" width="4" height="1" fill="#003F96" fill-opacity="0.3"/>
<rect x="162" y="81" width="4" height="1" fill="#003F96" fill-opacity="0.3"/>
<rect x="168" y="81" width="4" height="1" fill="#003F96" fill-opacity="0.3"/>
<rect x="156" y="79" width="4" height="1" fill="#003F96" fill-opacity="0.3"/>
<rect x="162" y="79" width="4" height="1" fill="#003F96" fill-opacity="0.3"/>
<rect x="168" y="79" width="4" height="1" fill="#003F96" fill-opacity="0.3"/>
<rect x="156" y="77" width="4" height="1" fill="#003F96" fill-opacity="0.3"/>
<rect x="162" y="77" width="4" height="1" fill="#003F96" fill-opacity="0.3"/>
<rect x="168" y="77" width="4" height="1" fill="#003F96" fill-opacity="0.3"/>
<rect x="156" y="75" width="4" height="1" fill="#003F96" fill-opacity="0.3"/>
<rect x="162" y="75" width="4" height="1" fill="#003F96" fill-opacity="0.3"/>
<rect x="168" y="75" width="4" height="1" fill="#003F96" fill-opacity="0.3"/>
<rect x="156" y="73" width="4" height="1" fill="#003F96" fill-opacity="0.3"/>
<rect x="162" y="73" width="4" height="1" fill="#003F96" fill-opacity="0.3"/>
<rect x="168" y="73" width="4" height="1" fill="#003F96" fill-opacity="0.3"/>
<rect x="156" y="71" width="4" height="1" fill="#003F96" fill-opacity="0.3"/>
<rect x="162" y="71" width="4" height="1" fill="#003F96" fill-opacity="0.3"/>
<rect x="168" y="71" width="4" height="1" fill="#003F96" fill-opacity="0.3"/>
<rect x="156" y="69" width="4" height="1" fill="#003F96" fill-opacity="0.3"/>
<rect x="162" y="69" width="4" height="1" fill="#003F96" fill-opacity="0.3"/>
<rect x="168" y="69" width="4" height="1" fill="#003F96" fill-opacity="0.3"/>
<rect x="156" y="67" width="4" height="1" fill="#003F96" fill-opacity="0.3"/>
<rect x="162" y="67" width="4" height="1" fill="#003F96" fill-opacity="0.3"/>
<rect x="168" y="67" width="4" height="1" fill="#003F96" fill-opacity="0.3"/>
<rect x="156" y="65" width="4" height="1" fill="#003F96" fill-opacity="0.3"/>
<rect x="162" y="65" width="4" height="1" fill="#003F96" fill-opacity="0.3"/>
<rect x="168" y="65" width="4" height="1" fill="#003F96" fill-opacity="0.3"/>
<rect x="156" y="63" width="4" height="1" fill="#003F96" fill-opacity="0.3"/>
<rect x="162" y="63" width="4" height="1" fill="#003F96" fill-opacity="0.3"/>
<rect x="168" y="63" width="4" height="1" fill="#003F96" fill-opacity="0.3"/>
<rect x="156" y="61" width="4" height="1" fill="#003F96" fill-opacity="0.3"/>
<rect x="162" y="61" width="4" height="1" fill="#003F96" fill-opacity="0.3"/>
<rect x="168" y="61" width="4" height="1" fill="#003F96" fill-opacity="0.3"/>
<rect x="174" y="83" width="4" height="1" fill="#003F96" fill-opacity="0.3"/>
<rect x="174" y="81" width="4" height="1" fill="#003F96" fill-opacity="0.3"/>
<rect x="174" y="79" width="4" height="1" fill="#003F96" fill-opacity="0.3"/>
<rect x="174" y="77" width="4" height="1" fill="#003F96" fill-opacity="0.3"/>
<rect x="174" y="75" width="4" height="1" fill="#003F96" fill-opacity="0.3"/>
<rect x="174" y="73" width="4" height="1" fill="#003F96" fill-opacity="0.3"/>
<rect x="174" y="71" width="4" height="1" fill="#003F96" fill-opacity="0.3"/>
<rect x="174" y="69" width="4" height="1" fill="#003F96" fill-opacity="0.3"/>
<rect x="174" y="67" width="4" height="1" fill="#003F96" fill-opacity="0.3"/>
<rect x="174" y="65" width="4" height="1" fill="#003F96" fill-opacity="0.3"/>
<rect x="174" y="63" width="4" height="1" fill="#003F96" fill-opacity="0.3"/>
<rect x="174" y="61" width="4" height="1" fill="#003F96" fill-opacity="0.3"/>
<rect x="12" y="83" width="4" height="1" fill="#003F96"/>
<rect x="18" y="83" width="4" height="1" fill="#003F96"/>
<rect x="24" y="83" width="4" height="1" fill="#003F96"/>
<rect x="12" y="81" width="4" height="1" fill="#003F96"/>
<rect x="18" y="81" width="4" height="1" fill="#003F96"/>
<rect x="24" y="81" width="4" height="1" fill="#003F96"/>
<rect x="12" y="79" width="4" height="1" fill="#003F96"/>
<rect x="18" y="79" width="4" height="1" fill="#003F96"/>
<rect x="24" y="79" width="4" height="1" fill="#003F96"/>
<rect x="12" y="77" width="4" height="1" fill="#003F96"/>
<rect x="24" y="77" width="4" height="1" fill="#003F96"/>
<rect x="12" y="75" width="4" height="1" fill="#003F96"/>
<rect x="24" y="75" width="4" height="1" fill="#003F96"/>
<rect x="12" y="73" width="4" height="1" fill="#003F96"/>
<rect x="24" y="73" width="4" height="1" fill="#003F96"/>
<rect x="12" y="71" width="4" height="1" fill="#003F96"/>
<rect x="24" y="71" width="4" height="1" fill="#003F96"/>
<rect x="24" y="69" width="4" height="1" fill="#003F96"/>
<rect x="24" y="67" width="4" height="1" fill="#003F96"/>
<rect x="24" y="65" width="4" height="1" fill="#003F96"/>
<rect x="30" y="83" width="4" height="1" fill="#003F96"/>
<rect x="36" y="83" width="4" height="1" fill="#003F96"/>
<rect x="42" y="83" width="4" height="1" fill="#003F96"/>
<rect x="30" y="81" width="4" height="1" fill="#003F96"/>
<rect x="36" y="81" width="4" height="1" fill="#003F96"/>
<rect x="42" y="81" width="4" height="1" fill="#003F96"/>
<rect x="30" y="79" width="4" height="1" fill="#003F96"/>
<rect x="36" y="79" width="4" height="1" fill="#003F96"/>
<rect x="42" y="79" width="4" height="1" fill="#003F96"/>
<rect x="30" y="77" width="4" height="1" fill="#003F96"/>
<rect x="36" y="77" width="4" height="1" fill="#003F96"/>
<rect x="42" y="77" width="4" height="1" fill="#003F96"/>
<rect x="30" y="75" width="4" height="1" fill="#003F96"/>
<rect x="36" y="75" width="4" height="1" fill="#003F96"/>
<rect x="42" y="75" width="4" height="1" fill="#003F96"/>
<rect x="30" y="73" width="4" height="1" fill="#003F96"/>
<rect x="36" y="73" width="4" height="1" fill="#003F96"/>
<rect x="42" y="73" width="4" height="1" fill="#003F96"/>
<rect x="30" y="71" width="4" height="1" fill="#003F96"/>
<rect x="36" y="71" width="4" height="1" fill="#003F96"/>
<rect x="30" y="69" width="4" height="1" fill="#003F96"/>
<rect x="36" y="69" width="4" height="1" fill="#003F96"/>
<rect x="30" y="67" width="4" height="1" fill="#003F96"/>
<rect x="36" y="67" width="4" height="1" fill="#003F96"/>
<rect x="48" y="83" width="4" height="1" fill="#003F96"/>
<rect x="54" y="83" width="4" height="1" fill="#003F96"/>
<rect x="60" y="83" width="4" height="1" fill="#003F96"/>
<rect x="48" y="81" width="4" height="1" fill="#003F96"/>
<rect x="54" y="81" width="4" height="1" fill="#003F96"/>
<rect x="60" y="81" width="4" height="1" fill="#003F96"/>
<rect x="48" y="79" width="4" height="1" fill="#003F96"/>
<rect x="54" y="79" width="4" height="1" fill="#003F96"/>
<rect x="60" y="79" width="4" height="1" fill="#003F96"/>
<rect x="48" y="77" width="4" height="1" fill="#003F96"/>
<rect x="54" y="77" width="4" height="1" fill="#003F96"/>
<rect x="60" y="77" width="4" height="1" fill="#003F96"/>
<rect x="48" y="75" width="4" height="1" fill="#003F96"/>
<rect x="54" y="75" width="4" height="1" fill="#003F96"/>
<rect x="60" y="75" width="4" height="1" fill="#003F96"/>
<rect x="48" y="73" width="4" height="1" fill="#003F96"/>
<rect x="54" y="73" width="4" height="1" fill="#003F96"/>
<rect x="60" y="73" width="4" height="1" fill="#003F96"/>
<rect x="48" y="71" width="4" height="1" fill="#003F96"/>
<rect x="54" y="71" width="4" height="1" fill="#003F96"/>
<rect x="60" y="71" width="4" height="1" fill="#003F96"/>
<rect x="48" y="69" width="4" height="1" fill="#003F96"/>
<rect x="54" y="69" width="4" height="1" fill="#003F96"/>
<rect x="60" y="69" width="4" height="1" fill="#003F96"/>
<rect x="48" y="67" width="4" height="1" fill="#003F96"/>
<rect x="54" y="67" width="4" height="1" fill="#003F96"/>
<rect x="60" y="67" width="4" height="1" fill="#003F96"/>
<rect x="48" y="65" width="4" height="1" fill="#003F96"/>
<rect x="54" y="65" width="4" height="1" fill="#003F96"/>
<rect x="60" y="65" width="4" height="1" fill="#003F96"/>
<rect x="48" y="63" width="4" height="1" fill="#003F96"/>
<rect x="54" y="63" width="4" height="1" fill="#003F96"/>
<rect x="60" y="63" width="4" height="1" fill="#003F96"/>
<rect x="66" y="83" width="4" height="1" fill="#003F96"/>
<rect x="72" y="83" width="4" height="1" fill="#003F96"/>
<rect x="78" y="83" width="4" height="1" fill="#003F96"/>
<rect x="66" y="81" width="4" height="1" fill="#003F96"/>
<rect x="72" y="81" width="4" height="1" fill="#003F96"/>
<rect x="78" y="81" width="4" height="1" fill="#003F96"/>
<rect x="66" y="79" width="4" height="1" fill="#003F96"/>
<rect x="72" y="79" width="4" height="1" fill="#003F96"/>
<rect x="78" y="79" width="4" height="1" fill="#003F96"/>
<rect x="66" y="77" width="4" height="1" fill="#003F96"/>
<rect x="72" y="77" width="4" height="1" fill="#003F96"/>
<rect x="78" y="77" width="4" height="1" fill="#003F96"/>
<rect x="66" y="75" width="4" height="1" fill="#003F96"/>
<rect x="72" y="75" width="4" height="1" fill="#003F96"/>
<rect x="78" y="75" width="4" height="1" fill="#003F96"/>
<rect x="66" y="73" width="4" height="1" fill="#003F96"/>
<rect x="72" y="73" width="4" height="1" fill="#003F96"/>
<rect x="78" y="73" width="4" height="1" fill="#003F96"/>
<rect x="66" y="71" width="4" height="1" fill="#003F96"/>
<rect x="72" y="71" width="4" height="1" fill="#003F96"/>
<rect x="78" y="71" width="4" height="1" fill="#003F96"/>
<rect x="72" y="69" width="4" height="1" fill="#003F96"/>
<rect x="78" y="69" width="4" height="1" fill="#003F96"/>
<rect x="72" y="67" width="4" height="1" fill="#003F96"/>
<rect x="78" y="67" width="4" height="1" fill="#003F96"/>
<rect x="78" y="65" width="4" height="1" fill="#003F96"/>
<rect x="84" y="83" width="4" height="1" fill="#003F96"/>
<rect x="90" y="83" width="4" height="1" fill="#003F96"/>
<rect x="96" y="83" width="4" height="1" fill="#003F96"/>
<rect x="84" y="81" width="4" height="1" fill="#003F96"/>
<rect x="90" y="81" width="4" height="1" fill="#003F96"/>
<rect x="96" y="81" width="4" height="1" fill="#003F96"/>
<rect x="84" y="79" width="4" height="1" fill="#003F96"/>
<rect x="90" y="79" width="4" height="1" fill="#003F96"/>
<rect x="96" y="79" width="4" height="1" fill="#003F96"/>
<rect x="84" y="77" width="4" height="1" fill="#003F96"/>
<rect x="90" y="77" width="4" height="1" fill="#003F96"/>
<rect x="96" y="77" width="4" height="1" fill="#003F96"/>
<rect x="84" y="75" width="4" height="1" fill="#003F96"/>
<rect x="90" y="75" width="4" height="1" fill="#003F96"/>
<rect x="96" y="75" width="4" height="1" fill="#003F96"/>
<rect x="90" y="73" width="4" height="1" fill="#003F96"/>
<rect x="96" y="73" width="4" height="1" fill="#003F96"/>
<rect x="90" y="71" width="4" height="1" fill="#003F96"/>
<rect x="96" y="71" width="4" height="1" fill="#003F96"/>
<rect x="102" y="83" width="4" height="1" fill="#003F96"/>
<rect x="108" y="83" width="4" height="1" fill="#003F96"/>
<rect x="114" y="83" width="4" height="1" fill="#003F96"/>
<rect x="102" y="81" width="4" height="1" fill="#003F96"/>
<rect x="108" y="81" width="4" height="1" fill="#003F96"/>
<rect x="114" y="81" width="4" height="1" fill="#003F96"/>
<rect x="102" y="79" width="4" height="1" fill="#003F96"/>
<rect x="108" y="79" width="4" height="1" fill="#003F96"/>
<rect x="114" y="79" width="4" height="1" fill="#003F96"/>
<rect x="102" y="77" width="4" height="1" fill="#003F96"/>
<rect x="108" y="77" width="4" height="1" fill="#003F96"/>
<rect x="114" y="77" width="4" height="1" fill="#003F96"/>
<rect x="102" y="75" width="4" height="1" fill="#003F96"/>
<rect x="108" y="75" width="4" height="1" fill="#003F96"/>
<rect x="114" y="75" width="4" height="1" fill="#003F96"/>
<rect x="102" y="73" width="4" height="1" fill="#003F96"/>
<rect x="108" y="73" width="4" height="1" fill="#003F96"/>
<rect x="114" y="73" width="4" height="1" fill="#003F96"/>
<rect x="108" y="71" width="4" height="1" fill="#003F96"/>
<rect x="114" y="71" width="4" height="1" fill="#003F96"/>
<rect x="108" y="69" width="4" height="1" fill="#003F96"/>
<rect x="114" y="69" width="4" height="1" fill="#003F96"/>
<rect x="108" y="67" width="4" height="1" fill="#003F96"/>
<rect x="114" y="67" width="4" height="1" fill="#003F96"/>
<rect x="114" y="65" width="4" height="1" fill="#003F96"/>
<rect x="114" y="63" width="4" height="1" fill="#003F96"/>
<rect x="120" y="83" width="4" height="1" fill="#003F96"/>
<rect x="126" y="83" width="4" height="1" fill="#003F96"/>
<rect x="132" y="83" width="4" height="1" fill="#003F96"/>
<rect x="120" y="81" width="4" height="1" fill="#003F96"/>
<rect x="126" y="81" width="4" height="1" fill="#003F96"/>
<rect x="132" y="81" width="4" height="1" fill="#003F96"/>
<rect x="120" y="79" width="4" height="1" fill="#003F96"/>
<rect x="126" y="79" width="4" height="1" fill="#003F96"/>
<rect x="132" y="79" width="4" height="1" fill="#003F96"/>
<rect x="120" y="77" width="4" height="1" fill="#003F96"/>
<rect x="126" y="77" width="4" height="1" fill="#003F96"/>
<rect x="132" y="77" width="4" height="1" fill="#003F96"/>
<rect x="120" y="75" width="4" height="1" fill="#003F96"/>
<rect x="126" y="75" width="4" height="1" fill="#003F96"/>
<rect x="132" y="75" width="4" height="1" fill="#003F96"/>
<rect x="120" y="73" width="4" height="1" fill="#003F96"/>
<rect x="126" y="73" width="4" height="1" fill="#003F96"/>
<rect x="132" y="73" width="4" height="1" fill="#003F96"/>
<rect x="120" y="71" width="4" height="1" fill="#003F96"/>
<rect x="126" y="71" width="4" height="1" fill="#003F96"/>
<rect x="132" y="71" width="4" height="1" fill="#003F96"/>
<rect x="120" y="69" width="4" height="1" fill="#003F96"/>
<rect x="126" y="69" width="4" height="1" fill="#003F96"/>
<rect x="132" y="69" width="4" height="1" fill="#003F96"/>
<rect x="120" y="67" width="4" height="1" fill="#003F96"/>
<rect x="132" y="67" width="4" height="1" fill="#003F96"/>
<rect x="120" y="65" width="4" height="1" fill="#003F96"/>
<rect x="138" y="83" width="4" height="1" fill="#003F96"/>
<rect x="144" y="83" width="4" height="1" fill="#003F96"/>
<rect x="150" y="83" width="4" height="1" fill="#003F96"/>
<rect x="138" y="81" width="4" height="1" fill="#003F96"/>
<rect x="144" y="81" width="4" height="1" fill="#003F96"/>
<rect x="150" y="81" width="4" height="1" fill="#003F96"/>
<rect x="138" y="79" width="4" height="1" fill="#003F96"/>
<rect x="144" y="79" width="4" height="1" fill="#003F96"/>
<rect x="150" y="79" width="4" height="1" fill="#003F96"/>
<rect x="138" y="77" width="4" height="1" fill="#003F96"/>
<rect x="144" y="77" width="4" height="1" fill="#003F96"/>
<rect x="150" y="77" width="4" height="1" fill="#003F96"/>
<rect x="138" y="75" width="4" height="1" fill="#003F96"/>
<rect x="144" y="75" width="4" height="1" fill="#003F96"/>
<rect x="150" y="75" width="4" height="1" fill="#003F96"/>
<rect x="138" y="73" width="4" height="1" fill="#003F96"/>
<rect x="144" y="73" width="4" height="1" fill="#003F96"/>
<rect x="150" y="73" width="4" height="1" fill="#003F96"/>
<rect x="144" y="71" width="4" height="1" fill="#003F96"/>
<rect x="150" y="71" width="4" height="1" fill="#003F96"/>
<rect x="144" y="69" width="4" height="1" fill="#003F96"/>
<rect x="150" y="69" width="4" height="1" fill="#003F96"/>
<rect x="156" y="83" width="4" height="1" fill="#003F96"/>
<rect x="162" y="83" width="4" height="1" fill="#003F96"/>
<rect x="168" y="83" width="4" height="1" fill="#003F96"/>
<rect x="156" y="81" width="4" height="1" fill="#003F96"/>
<rect x="162" y="81" width="4" height="1" fill="#003F96"/>
<rect x="156" y="79" width="4" height="1" fill="#003F96"/>
<rect x="162" y="79" width="4" height="1" fill="#003F96"/>
<rect x="156" y="77" width="4" height="1" fill="#003F96"/>
<rect x="162" y="77" width="4" height="1" fill="#003F96"/>
<rect x="156" y="75" width="4" height="1" fill="#003F96"/>
<rect x="162" y="75" width="4" height="1" fill="#003F96"/>
<rect x="156" y="73" width="4" height="1" fill="#003F96"/>
<rect x="174" y="83" width="4" height="1" fill="#003F96"/>
<rect x="174" y="81" width="4" height="1" fill="#003F96"/>
<rect x="174" y="79" width="4" height="1" fill="#003F96"/>
<rect x="174" y="77" width="4" height="1" fill="#003F96"/>
<rect x="174" y="75" width="4" height="1" fill="#003F96"/>
<rect x="174" y="73" width="4" height="1" fill="#003F96"/>
<rect x="18" y="75" width="4" height="1" fill="#FF0F00"/>
<rect x="12" y="67" width="4" height="1" fill="#FF0F00"/>
<rect x="24" y="61" width="4" height="1" fill="#FF0F00"/>
<rect x="42" y="69" width="4" height="1" fill="#FF0F00"/>
<rect x="30" y="63" width="4" height="1" fill="#FF0F00"/>
<rect x="36" y="63" width="4" height="1" fill="#FF0F00"/>
<rect x="66" y="67" width="4" height="1" fill="#FF0F00"/>
<rect x="72" y="63" width="4" height="1" fill="#FF0F00"/>
<rect x="78" y="61" width="4" height="1" fill="#FF0F00"/>
<rect x="84" y="71" width="4" height="1" fill="#FF0F00"/>
<rect x="90" y="67" width="4" height="1" fill="#FF0F00"/>
<rect x="96" y="67" width="4" height="1" fill="#FF0F00"/>
<rect x="102" y="69" width="4" height="1" fill="#FF0F00"/>
<rect x="108" y="63" width="4" height="1" fill="#FF0F00"/>
<rect x="114" y="61" width="4" height="1" fill="#FF0F00"/>
<rect x="126" y="67" width="4" height="1" fill="#FF0F00"/>
<rect x="132" y="65" width="4" height="1" fill="#FF0F00"/>
<rect x="120" y="63" width="4" height="1" fill="#FF0F00"/>
<rect x="138" y="71" width="4" height="1" fill="#FF0F00"/>
<rect x="144" y="67" width="4" height="1" fill="#FF0F00"/>
<rect x="150" y="67" width="4" height="1" fill="#FF0F00"/>
<rect x="168" y="81" width="4" height="1" fill="#FF0F00"/>
<rect x="162" y="73" width="4" height="1" fill="#FF0F00"/>
<rect x="156" y="71" width="4" height="1" fill="#FF0F00"/>
<rect x="174" y="71" width="4" height="1" fill="#FF0F00"/>
<g filter="url(#filter1_f_544_2998)">
<rect x="4" y="101" width="182" height="1" fill="#003D9A" fill-opacity="0.15"/>
<rect x="4" y="99" width="182" height="1" fill="#003D9A" fill-opacity="0.15"/>
<rect x="4" y="105" width="182" height="1" fill="#003D9A" fill-opacity="0.15"/>
<rect x="4" y="103" width="182" height="1" fill="#003D9A" fill-opacity="0.15"/>
<rect x="4" y="97" width="182" height="1" fill="#003D9A" fill-opacity="0.15"/>
<rect x="4" y="95" width="182" height="1" fill="#003D9A" fill-opacity="0.15"/>
<rect x="4" y="93" width="182" height="1" fill="#003D9A" fill-opacity="0.15"/>
<rect x="4" y="91" width="182" height="1" fill="#003D9A" fill-opacity="0.15"/>
<rect x="4" y="89" width="182" height="1" fill="#003D9A" fill-opacity="0.15"/>
<rect x="4" y="87" width="182" height="1" fill="#003D9A" fill-opacity="0.15"/>
<rect x="4" y="85" width="182" height="1" fill="#003D9A" fill-opacity="0.15"/>
<rect x="4" y="83" width="182" height="1" fill="#003D9A" fill-opacity="0.15"/>
<rect x="4" y="81" width="182" height="1" fill="#003D9A" fill-opacity="0.15"/>
<rect x="4" y="79" width="182" height="1" fill="#003D9A" fill-opacity="0.15"/>
<rect x="4" y="77" width="182" height="1" fill="#003D9A" fill-opacity="0.15"/>
<rect x="4" y="75" width="182" height="1" fill="#003D9A" fill-opacity="0.15"/>
<rect x="4" y="73" width="182" height="1" fill="#003D9A" fill-opacity="0.15"/>
<rect x="4" y="71" width="182" height="1" fill="#003D9A" fill-opacity="0.15"/>
<rect x="4" y="69" width="182" height="1" fill="#003D9A" fill-opacity="0.15"/>
<rect x="4" y="67" width="182" height="1" fill="#003D9A" fill-opacity="0.15"/>
<rect x="4" y="65" width="182" height="1" fill="#003D9A" fill-opacity="0.15"/>
<rect x="4" y="63" width="182" height="1" fill="#003D9A" fill-opacity="0.15"/>
<rect x="4" y="61" width="182" height="1" fill="#003D9A" fill-opacity="0.15"/>
<rect x="4" y="59" width="182" height="1" fill="#003D9A" fill-opacity="0.15"/>
<rect x="4" y="57" width="182" height="1" fill="#003D9A" fill-opacity="0.15"/>
<rect x="4" y="55" width="182" height="1" fill="#003D9A" fill-opacity="0.15"/>
<rect x="4" y="53" width="182" height="1" fill="#003D9A" fill-opacity="0.15"/>
<rect x="4" y="51" width="182" height="1" fill="#003D9A" fill-opacity="0.15"/>
<rect x="4" y="49" width="182" height="1" fill="#003D9A" fill-opacity="0.15"/>
<rect x="4" y="47" width="182" height="1" fill="#003D9A" fill-opacity="0.15"/>
<rect x="4" y="45" width="182" height="1" fill="#003D9A" fill-opacity="0.15"/>
<rect x="4" y="43" width="182" height="1" fill="#003D9A" fill-opacity="0.15"/>
<rect x="4" y="41" width="182" height="1" fill="#003D9A" fill-opacity="0.15"/>
<rect x="4" y="39" width="182" height="1" fill="#003D9A" fill-opacity="0.15"/>
<rect x="4" y="37" width="182" height="1" fill="#003D9A" fill-opacity="0.15"/>
<rect x="4" y="35" width="182" height="1" fill="#003D9A" fill-opacity="0.15"/>
<rect x="4" y="33" width="182" height="1" fill="#003D9A" fill-opacity="0.15"/>
<rect x="4" y="31" width="182" height="1" fill="#003D9A" fill-opacity="0.15"/>
<rect x="4" y="29" width="182" height="1" fill="#003D9A" fill-opacity="0.15"/>
<rect x="4" y="27" width="182" height="1" fill="#003D9A" fill-opacity="0.15"/>
<rect x="4" y="25" width="182" height="1" fill="#003D9A" fill-opacity="0.15"/>
<rect x="4" y="23" width="182" height="1" fill="#003D9A" fill-opacity="0.15"/>
<rect x="4" y="21" width="182" height="1" fill="#003D9A" fill-opacity="0.15"/>
<rect x="4" y="19" width="182" height="1" fill="#003D9A" fill-opacity="0.15"/>
<rect x="4" y="17" width="182" height="1" fill="#003D9A" fill-opacity="0.15"/>
<rect x="4" y="15" width="182" height="1" fill="#003D9A" fill-opacity="0.15"/>
<rect x="4" y="13" width="182" height="1" fill="#003D9A" fill-opacity="0.15"/>
<rect x="4" y="11" width="182" height="1" fill="#003D9A" fill-opacity="0.15"/>
<rect x="4" y="9" width="182" height="1" fill="#003D9A" fill-opacity="0.15"/>
<rect x="4" y="7" width="182" height="1" fill="#003D9A" fill-opacity="0.15"/>
<rect x="4" y="5" width="182" height="1" fill="#003D9A" fill-opacity="0.15"/>
<rect x="4" y="3" width="182" height="1" fill="#003D9A" fill-opacity="0.15"/>
<rect x="4" y="1" width="182" height="1" fill="#003D9A" fill-opacity="0.15"/>
</g>
<g style="mix-blend-mode:darken">
<g filter="url(#filter2_i_544_2998)">
<path d="M4 1H186V107H4V1Z" fill="#B9FFFF" fill-opacity="0.01"/>
</g>
<path d="M4.5 1.5H185.5V106.5H4.5V1.5Z" stroke="#B9FFFF" stroke-opacity="0.4"/>
</g>
</g>
<defs>
<filter id="filter0_dd_544_2998" x="0" y="1" width="190" height="114" filterUnits="userSpaceOnUse" color-interpolation-filters="sRGB">
<feFlood flood-opacity="0" result="BackgroundImageFix"/>
<feColorMatrix in="SourceAlpha" type="matrix" values="0 0 0 0 0 0 0 0 0 0 0 0 0 0 0 0 0 0 127 0" result="hardAlpha"/>
<feOffset dy="4"/>
<feGaussianBlur stdDeviation="2"/>
<feComposite in2="hardAlpha" operator="out"/>
<feColorMatrix type="matrix" values="0 0 0 0 0 0 0 0 0 0 0 0 0 0 0 0 0 0 0.25 0"/>
<feBlend mode="normal" in2="BackgroundImageFix" result="effect1_dropShadow_544_2998"/>
<feColorMatrix in="SourceAlpha" type="matrix" values="0 0 0 0 0 0 0 0 0 0 0 0 0 0 0 0 0 0 127 0" result="hardAlpha"/>
<feOffset dy="4"/>
<feGaussianBlur stdDeviation="2"/>
<feComposite in2="hardAlpha" operator="out"/>
<feColorMatrix type="matrix" values="0 0 0 0 0 0 0 0 0 0 0 0 0 0 0 0 0 0 0.25 0"/>
<feBlend mode="normal" in2="effect1_dropShadow_544_2998" result="effect2_dropShadow_544_2998"/>
<feBlend mode="normal" in="SourceGraphic" in2="effect2_dropShadow_544_2998" result="shape"/>
</filter>
<filter id="filter1_f_544_2998" x="3" y="0" width="184" height="107" filterUnits="userSpaceOnUse" color-interpolation-filters="sRGB">
<feFlood flood-opacity="0" result="BackgroundImageFix"/>
<feBlend mode="normal" in="SourceGraphic" in2="BackgroundImageFix" result="shape"/>
<feGaussianBlur stdDeviation="0.5" result="effect1_foregroundBlur_544_2998"/>
</filter>
<filter id="filter2_i_544_2998" x="4" y="1" width="182" height="106" filterUnits="userSpaceOnUse" color-interpolation-filters="sRGB">
<feFlood flood-opacity="0" result="BackgroundImageFix"/>
<feBlend mode="normal" in="SourceGraphic" in2="BackgroundImageFix" result="shape"/>
<feColorMatrix in="SourceAlpha" type="matrix" values="0 0 0 0 0 0 0 0 0 0 0 0 0 0 0 0 0 0 127 0" result="hardAlpha"/>
<feOffset/>
<feGaussianBlur stdDeviation="10"/>
<feComposite in2="hardAlpha" operator="arithmetic" k2="-1" k3="1"/>
<feColorMatrix type="matrix" values="0 0 0 0 0 0 0 0 0 0.133333 0 0 0 0 0.337255 0 0 0 0.8 0"/>
<feBlend mode="normal" in2="shape" result="effect1_innerShadow_544_2998"/>
</filter>
<radialGradient id="paint0_radial_544_2998" cx="0" cy="0" r="1" gradientUnits="userSpaceOnUse" gradientTransform="translate(96 54) rotate(90) scale(52 90)">
<stop stop-color="#ECFFFF"/>
<stop offset="1" stop-color="#ECFFFF" stop-opacity="0"/>
</radialGradient>
</defs>
</svg>
