<svg width="14" height="19" viewBox="0 0 14 19" fill="none" xmlns="http://www.w3.org/2000/svg">
<path d="M13.6621 10.5156C13.6621 10.7266 13.583 10.917 13.4248 11.0869L7.58887 16.9316C7.50684 17.0195 7.41602 17.084 7.31641 17.125C7.2168 17.1719 7.11133 17.1953 7 17.1953C6.89453 17.1953 6.79199 17.1719 6.69238 17.125C6.59277 17.084 6.49902 17.0195 6.41113 16.9316L0.583984 11.0869C0.419922 10.917 0.337891 10.7266 0.337891 10.5156C0.337891 10.2988 0.408203 10.1172 0.548828 9.9707C0.695312 9.82422 0.876953 9.75098 1.09375 9.75098C1.19922 9.75098 1.29883 9.76855 1.39258 9.80371C1.49219 9.83887 1.57715 9.8916 1.64746 9.96191L3.65137 11.9307L6.80664 15.3848L6.30566 15.5605L6.21777 12.9414V1.35742C6.21777 1.13477 6.29102 0.950195 6.4375 0.803711C6.58398 0.657227 6.77148 0.583984 7 0.583984C7.22852 0.583984 7.41602 0.657227 7.5625 0.803711C7.70898 0.950195 7.78223 1.13477 7.78223 1.35742V12.9414L7.69434 15.5605L7.20215 15.3848L10.3486 11.9307L12.3525 9.96191C12.4229 9.8916 12.5049 9.83887 12.5986 9.80371C12.6982 9.76855 12.8008 9.75098 12.9062 9.75098C13.123 9.75098 13.3018 9.82422 13.4424 9.9707C13.5889 10.1172 13.6621 10.2988 13.6621 10.5156ZM13.6621 17.9775C13.6621 18.2061 13.5918 18.3936 13.4512 18.54C13.3105 18.6924 13.1289 18.7686 12.9062 18.7686H1.11133C0.882812 18.7686 0.695312 18.6924 0.548828 18.54C0.408203 18.3936 0.337891 18.2061 0.337891 17.9775C0.337891 17.749 0.408203 17.5615 0.548828 17.415C0.695312 17.2686 0.882812 17.1953 1.11133 17.1953H12.9062C13.1289 17.1953 13.3105 17.2686 13.4512 17.415C13.5918 17.5615 13.6621 17.749 13.6621 17.9775Z" fill="#EB6976"/>
</svg>
