<svg width="17" height="17" viewBox="0 0 17 17" fill="none" xmlns="http://www.w3.org/2000/svg">
<path d="M3.66952 11.5729C3.05035 11.5729 2.58597 11.4172 2.27638 11.1057C1.96679 10.7882 1.812 10.306 1.812 9.65909V6.21776C1.812 5.61875 1.94555 5.16949 2.21264 4.86998L12.5929 15.1041C12.5201 15.3617 12.3987 15.5504 12.2287 15.6702C12.0587 15.79 11.8554 15.8499 11.6186 15.8499C11.4122 15.8499 11.215 15.805 11.0268 15.7151C10.8386 15.6253 10.6383 15.4815 10.4258 15.2838L6.49223 11.6538C6.43153 11.5999 6.35565 11.5729 6.2646 11.5729H3.66952ZM12.6567 10.2611L6.33744 4.04334H6.61061C6.66524 4.04334 6.71684 4.01938 6.7654 3.97146L10.4258 0.619979C10.6626 0.404334 10.8659 0.248591 11.0359 0.152748C11.2059 0.0509161 11.3971 0 11.6095 0C11.9191 0 12.171 0.104827 12.3653 0.314482C12.5595 0.518147 12.6567 0.766737 12.6567 1.06025V10.2611ZM15.8072 16.7933L0.200321 1.41068C0.0667738 1.27889 0 1.11716 0 0.925476C0 0.727801 0.0667738 0.563073 0.200321 0.43129C0.339939 0.293517 0.506874 0.227625 0.701125 0.233615C0.895376 0.233615 1.06231 0.299507 1.20193 0.43129L16.7906 15.814C16.9302 15.9517 17 16.1135 17 16.2992C17 16.4908 16.9302 16.6556 16.7906 16.7933C16.6631 16.9311 16.4992 17 16.2989 17C16.1046 17 15.9407 16.9311 15.8072 16.7933Z" fill="#FEFDBA"/>
</svg>
