<svg width="16" height="16" viewBox="0 0 16 16" fill="none" xmlns="http://www.w3.org/2000/svg">
<path d="M15.2277 6.78407C15.4516 6.78407 15.6362 6.7086 15.7817 6.55765C15.9272 6.40671 16 6.22222 16 6.00419V1.3501C16 0.925227 15.8825 0.595388 15.6474 0.360587C15.4068 0.120196 15.0738 0 14.6485 0H9.98951C9.76006 0 9.57258 0.0726765 9.42707 0.218029C9.27597 0.363382 9.20042 0.547869 9.20042 0.771488C9.20042 0.995108 9.27597 1.17959 9.42707 1.32495C9.57817 1.46471 9.76565 1.53459 9.98951 1.53459H10.6863L13.6243 1.36688L11.2991 3.57233L8.70514 6.15514C8.63239 6.22781 8.57643 6.31447 8.53725 6.41509C8.49808 6.51572 8.47849 6.62194 8.47849 6.73375C8.47849 6.96855 8.55684 7.15863 8.71354 7.30398C8.87023 7.44375 9.06891 7.51363 9.30955 7.51363C9.52221 7.51363 9.6985 7.44095 9.83841 7.2956L12.4239 4.69602L14.6317 2.37317L14.4638 5.29979V6.00419C14.4638 6.22781 14.5366 6.41509 14.6821 6.56604C14.822 6.71139 15.0038 6.78407 15.2277 6.78407ZM6.01889 16C6.24274 16 6.43022 15.9273 6.58132 15.782C6.73242 15.6366 6.80797 15.4521 6.80797 15.2285C6.80797 15.0049 6.73242 14.8204 6.58132 14.6751C6.43022 14.5353 6.24274 14.4654 6.01889 14.4654H5.31375L2.37566 14.6331L4.70934 12.4277L7.29486 9.84486C7.37321 9.77219 7.43197 9.68553 7.47114 9.58491C7.51032 9.48428 7.52991 9.37806 7.52991 9.26625C7.52991 9.03145 7.45156 8.84416 7.29486 8.7044C7.13256 8.55905 6.93389 8.48637 6.69885 8.48637C6.48059 8.48637 6.3015 8.55905 6.1616 8.7044L3.58447 11.304L1.36831 13.6268L1.5446 10.7002V9.99581C1.5446 9.77219 1.47184 9.5877 1.32634 9.44235C1.18083 9.2914 0.998951 9.21593 0.780693 9.21593C0.556839 9.21593 0.372159 9.2914 0.226653 9.44235C0.075551 9.59329 9.53674e-07 9.77778 9.53674e-07 9.99581V14.6499C9.53674e-07 15.0748 0.120322 15.4046 0.360966 15.6394C0.596013 15.8798 0.928997 16 1.35992 16H6.01889Z" fill="#FEFDBA"/>
</svg>
