<svg width="18" height="18" viewBox="0 0 18 18" fill="none" xmlns="http://www.w3.org/2000/svg">
<path d="M9.02397 5.44397C11.0053 5.46197 12.5691 7.0632 12.5411 9.04385C12.5129 11.0252 10.898 12.5883 8.92452 12.5444C6.97344 12.5012 5.44344 10.9345 5.4485 8.98554C5.45356 7.0056 7.04757 5.42598 9.02397 5.44397Z" fill="#EB6976"/>
<path d="M13.6324 16.5733C10.5372 19.0659 5.00636 18.1739 2.14154 14.8195C-1.0098 11.1296 -0.641817 5.5937 2.97247 2.31565C6.54277 -0.922085 12.0664 -0.743532 15.4338 2.71883C18.7024 6.07968 18.8472 11.6559 15.788 14.8029C15.0737 14.0548 14.3588 13.3053 13.6093 12.5205C14.7692 10.8992 15.1285 9.04383 14.4352 7.05166C13.3999 4.07743 10.1204 2.50789 7.12957 3.52161C4.17408 4.5231 2.55633 7.70467 3.47928 10.6998C4.41236 13.728 7.57743 15.448 10.615 14.5149C11.2197 14.3292 11.5553 14.4379 11.9463 14.8879C12.4632 15.484 13.0615 16.0096 13.6324 16.5733Z" fill="#EB6976"/>
</svg>
